**ABCDEFGHIJKLMNOPQRSTUVWXYZabcdefghijklmnopqrstuvwxyz**************************
**PARASOLID !"#$%&'()*+,-./:;<=>?@[\]^_`{|}~0123456789**************************
**PART1;
MC=AMD64;
MC_MODEL=Intel64 Family 6 Model 58 Stepping 9, GenuineIntel;
MC_ID=unknown;
OS=Windows_NT;
OS_RELEASE=unknown;
FRU=Parasolid Version 24.1, build 257,  2-12-2013;
APPL=SolidWorks 2013-2013086;
SITE=;
USER=unknown;
FORMAT=text;
GUISE=transmit;
KEY=Final Tire Cover V4B;
FILE=Final Tire Cover V4B.x_t;
DATE=Sun Mar 09 11:56:19 2014;
**PART2;
SCH=SCH_2401257_20000;
USFLD_SIZE=0;
**PART3;
**END_OF_HEADER*****************************************************************
T51 : TRANSMIT FILE created by modeller version 240125723 SCH_2401257_20000_1300
6189 0 12 27 CCCCCCCCCCCCCCCCCCCCCCCA16 index_map_offset0 0 1 dA9 index_map82 0
 A17 node_id_index_map82 0 A20 schema_embedding_map82 0 Z1 5164 0 2 0 0 0 0 1e3
 1e-8 0 3 0 1 0 1 1 4 5 6 7 8 9 10 0 0 0 0 70 11 CI9 list_type0 0 1 uI10 notrans
mit0 0 1 lCCCDCCDI12 finger_index0 0 1 dI12 finger_block1012 0 CZ2 0 4 T1 0 0 2
 20 1 11 11 13 255 4 131 0 1 0 12 0 0 13 0 50 255 5 4844 0 14 15 0 0 +-.635 .088
9 .1143 1561055996379575e-31 -1 0 1 1561055996379575e-31 0 30 255 6 4425 0 9 16
 0 0 +.612004615818396 .0889 .104775 -2331176954593505e-29 1 0 29 255 7 4428 0 1
0 17 0 .612004615818396 .0841375 .104775 19 255 8 1093 0 1 13 0 18 V16 255 9 441
6 0 ?19 0 20 6 0 0 1 18 255 10 4426 0 21 0 22 7 ?1 17 255 21 0 23 24 25 10 26 27
 0 28 -18 22 4410 0 29 10 30 17 ?1 17 29 0 31 32 33 22 34 35 0 36 +18 30 4394 0
 37 22 38 39 ?1 29 17 4412 0 22 39 7 -.612004615818397 .0841375 .104775 29 39 43
96 0 30 40 17 -.612004615818397 .0889 .104775 29 40 1821 0 41 42 39 .60864886378
4414 .0841375 .009525 18 41 1733 0 43 44 45 40 ?1 29 42 1822 0 45 46 40 .6086488
63784414 .0841375 .00617671356237309 18 45 1734 0 47 41 48 42 ?1 29 46 1823 0 49
 50 42 .3483 .0841375 .00617671356237309 18 49 1753 0 51 52 53 46 ?1 29 50 1824
 0 53 54 46 .3483 .0841375 .0047625 18 53 1754 0 55 49 56 50 ?1 29 54 1825 0 52
 57 50 -.3483 .0841375 .0047625 18 52 1751 0 58 59 49 54 ?1 29 57 1826 0 59 60 5
4 -.3483 .0841375 .00617671356237309 18 59 1750 0 61 62 52 57 ?1 29 60 1827 0 62
 63 57 -.608648863784415 .0841375 .00617671356237309 18 62 1746 0 64 48 59 60 ?1
 29 63 1828 0 48 65 60 -.608648863784415 .0841375 .009525 18 48 1745 0 66 45 62
 63 ?1 29 65 1071 0 38 67 63 .608648863784414 .0889 .009525 18 38 1069 0 68 30 6
9 65 ?1 29 67 1068 0 69 70 65 .608648863784414 .0889 .00617671356237309 18 69 10
65 0 71 38 72 67 ?1 29 70 510 0 72 73 67 -.608648863784415 .0889 .009525 18 72 5
08 0 74 69 75 70 ?1 29 73 507 0 75 76 70 -.608648863784415 .0889 .00617671356237
309 18 75 504 0 77 72 78 73 ?1 29 76 390 0 78 79 73 -.3483 .0889 .00617671356237
309 18 78 388 0 80 75 81 76 ?1 29 79 383 0 81 82 76 -.3483 .0889 .0047625 18 81
 380 0 83 78 84 79 ?1 29 82 293 0 84 85 79 .3483 .0889 .00617671356237309 18 84
 291 0 86 81 44 82 ?1 29 85 290 0 44 87 82 .3483 .0889 .0047625 18 44 287 0 88 8
4 41 85 ?1 29 87 3109 0 56 89 85 -.628836680207708 .0889 .009525 18 56 3047 0 90
 53 91 87 ?1 29 89 3344 0 92 93 87 -.628836680207708 .0841375 .009525 18 92 3172
 0 94 95 96 89 ?1 29 93 3346 0 95 97 89 -.798794270613959 .0841375 -.17638915875
65925 18 95 3174 0 98 99 92 93 ?1 29 97 3347 0 99 100 93 -.920150260263526 .0889
 -.0550331691070248 18 99 3175 0 101 102 95 97 ?1 29 100 3348 0 102 103 97 -.920
150260263526 .0841375 -.0550331691070248 18 102 3176 0 104 105 99 100 ?1 29 103
 3349 0 105 106 100 -.866813467416042 .0841375 -.00169637625954115 18 105 3177 0
 107 108 102 103 ?1 29 106 3350 0 108 109 103 -.628836680207708 .0841375 -.00643
15683503428 18 108 3178 0 110 111 105 106 ?1 29 109 3351 0 111 112 106 -.7987942
70613959 .0889 -.1763891587565925 18 111 3179 0 113 114 108 109 ?1 29 112 3353 0
 114 115 109 -.866813467416042 .0889 -.00169637625954115 18 114 3181 0 116 117 1
11 112 ?1 29 115 3355 0 117 118 112 -.628836680207708 .0889 -.0064315683503428 1
8 117 3183 0 119 120 114 115 ?1 29 118 3356 0 120 121 115 -.63219243224169 .0841
375 .108123286437627 18 120 3184 0 122 123 117 118 ?1 29 121 3357 0 123 124 118
 -.63219243224169 .0889 .104775 18 123 3185 0 125 126 120 121 ?1 29 124 3358 0 1
26 127 121 -.857288467416042 .0841375 .108123286437627 18 126 3186 0 128 129 123
 124 ?1 29 127 3359 0 129 130 124 -.63219243224169 .0889 .108123286437627 18 129
 3187 0 131 132 126 127 ?1 29 130 3360 0 132 133 127 -.857288467416042 .0889 .10
8123286437627 18 132 3188 0 134 135 129 130 ?1 29 133 3361 0 135 136 130 -.85728
8467416042 .0889 .009525 18 135 3189 0 137 138 132 133 ?1 29 136 3362 0 138 139
 133 -.857288467416042 .0841375 .009525 18 138 3190 0 140 91 135 136 ?1 29 139 3
363 0 91 141 136 -.63219243224169 .0841375 .104775 18 91 3191 0 34 56 138 139 ?1
 29 141 4322 0 142 143 139 .628836680207707 .0889 .009525 18 142 4150 0 144 145
 146 141 ?1 29 143 4323 0 145 147 141 .628836680207707 .0841375 .009525 18 145 4
151 0 148 149 142 143 ?1 29 147 4326 0 149 150 143 .920150260263523 .0841375 -.0
550331691070253 18 149 4154 0 151 152 145 147 ?1 29 150 4327 0 152 153 147 .7987
94270613956 .0889 -.176389158756592 18 152 4155 0 154 155 149 150 ?1 29 153 4328
 0 155 156 150 .920150260263523 .0889 -.0550331691070253 18 155 4156 0 157 158 1
52 153 ?1 29 156 4329 0 158 159 153 .798794270613956 .0841375 -.176389158756592
 18 158 4157 0 160 161 155 156 ?1 29 159 4330 0 161 162 156 .628836680207707 .08
89 -.00643156835034263 18 161 4158 0 163 164 158 159 ?1 29 162 4331 0 164 165 15
9 .86681346741604 .0841375 -.001696376259540985 18 164 4159 0 166 167 161 162 ?1
 29 165 4333 0 167 168 162 .86681346741604 .0889 -.00169637625954107 18 167 4161
 0 169 170 164 165 ?1 29 168 4334 0 170 171 165 .628836680207707 .0841375 -.0064
3156835034263 18 170 4162 0 172 173 167 168 ?1 29 171 4336 0 173 174 168 .857288
46741604 .0841375 .108123286437627 18 173 4164 0 175 176 170 171 ?1 29 174 4337
 0 176 177 171 .85728846741604 .0841375 .009525 18 176 4165 0 178 179 173 174 ?1
 29 177 4338 0 179 180 174 .632192432241689 .0841375 .108123286437627 18 179 416
6 0 181 182 176 177 ?1 29 180 4339 0 182 183 177 .85728846741604 .0889 .10812328
6437627 18 182 4167 0 184 185 179 180 ?1 29 183 4340 0 185 186 180 .632192432241
689 .0841375 .104775 18 185 4168 0 26 187 182 183 ?1 29 186 4341 0 187 188 183 .
632192432241689 .0889 .108123286437627 18 187 4169 0 189 190 185 186 ?1 29 188 4
342 0 190 191 186 .85728846741604 .0889 .009525 18 190 4170 0 192 96 187 188 ?1
 29 191 4343 0 96 193 188 .632192432241689 .0889 .104775 18 96 4171 0 194 92 190
 191 ?1 29 193 4631 0 146 195 191 .612004615818396 .0889 .104775 18 146 4574 0 1
96 142 197 193 ?1 29 195 4770 0 198 199 193 .448464807909198 .0841375 .284271376
259541 18 198 4679 0 200 201 0 195 ?1 29 199 4771 0 201 202 195 .612004615818396
 .0889 .120731568350343 18 201 4680 0 203 204 198 199 ?1 29 202 4772 0 204 205 1
99 -.448464807909198 .0841375 .284271376259541 18 204 4681 0 206 207 201 202 ?1
 29 205 4773 0 207 208 202 .448464807909198 .0889 .2842713762595415 18 207 4682
 0 209 210 204 205 ?1 29 208 4774 0 210 211 205 -.612004615818397 .0841375 .1207
315683503426 18 210 4683 0 212 213 207 208 ?1 29 211 4775 0 213 214 208 -.448464
807909198 .0889 .284271376259541 18 213 4684 0 215 216 210 211 ?1 29 214 4776 0
 216 217 211 -.612004615818397 .0889 .1207315683503426 18 216 4685 0 218 197 213
 214 ?1 29 217 4777 0 197 0 214 .612004615818396 .0841375 .120731568350343 18 19
7 4686 0 24 146 216 217 ?1 17 24 0 23 219 21 197 220 221 0 222 -15 255 23 1570 0
 223 224 0 17 219 0 23 225 24 198 226 227 0 228 -17 220 0 229 19 222 10 24 221 0
 0 +16 221 4536 0 ?220 230 231 232 0 0 1 17 222 0 229 220 203 197 233 234 0 226
 -15 229 4597 0 220 235 0 17 203 0 229 222 19 201 236 237 0 233 -17 233 0 238 23
9 226 201 222 234 0 240 +16 234 4656 0 ?233 241 227 242 0 0 1 17 226 0 238 233 2
00 197 219 227 0 0 +15 238 4702 0 200 243 0 17 200 0 238 226 239 198 209 244 0 2
19 -16 227 4655 0 ?226 234 0 245 0 0 1 30 245 4750 0 227 242 246 0 +.63063240395
4598 .0841375 .1021037802141402 .707106781186546 1536811308969665e-31 -.70710678
1186549 30 242 4751 0 234 247 245 0 +.612004615818396 .0889 .120731568350343 -15
61055996379575e-31 1 612323399573677e-31 30 246 4624 0 230 245 248 0 +-.61200461
5818397 .0889 .1103856881297704 0 0 1 16 230 4563 0 ?218 237 221 246 0 0 1 30 24
8 4622 0 237 246 249 0 -.612004615818396 .0889 .1103856881297704 0 0 1 16 237 45
50 0 ?236 250 230 248 0 0 1 30 249 4620 0 231 248 232 0 +-.612004615818397 .0841
375 .1103856881297704 0 0 1 16 231 4522 0 ?212 221 251 249 0 0 1 30 232 4618 0 2
21 249 252 0 -.612004615818396 .0841375 .1103856881297704 0 0 1 30 252 4319 0 25
3 232 254 0 +.632192432241689 .0889 .104775 -1110223024625156e-31 1 0 16 253 414
7 0 ?255 27 256 252 0 0 1 30 254 4318 0 256 252 257 0 +.85728846741604 .0889 .11
43 0 0 -1 16 256 4146 0 ?192 253 258 254 0 0 1 30 257 4317 0 258 254 259 0 +.857
28846741604 .0889 .108123286437627 1 1110223024625156e-31 0 16 258 4145 0 ?260 2
56 261 257 0 0 1 30 259 4316 0 261 257 262 0 +.632192432241689 .0889 .1143 0 0 1
 16 261 4144 0 ?263 258 264 259 0 0 1 30 262 4313 0 264 259 265 0 +.857288467416
04 .0889 .009525 .647128816437566 255351295663786e-29 -.762380675867453 16 264 4
139 0 ?266 261 267 262 0 0 1 30 265 4311 0 267 262 268 0 +.628836680207707 .0889
 .009525 229261054585095e-28 1 0 16 267 4135 0 ?269 264 270 265 0 0 1 30 268 430
9 0 270 265 271 0 +.632192432241689 .0889 .108123286437627 -1110223024625156e-31
 1 0 16 270 4133 0 ?189 267 272 268 0 0 1 30 271 4308 0 272 268 273 0 +.63219243
2241689 .0841375 .1143 0 0 1 16 272 4132 0 ?274 270 275 271 0 0 1 30 273 4307 0
 275 271 276 0 +.85728846741604 .0889 .108123286437627 -1110223024625156e-31 1 0
 16 275 4131 0 ?184 272 277 273 0 0 1 30 276 4306 0 277 273 278 0 +.857288467416
04 .0841375 .108123286437627 1 1110223024625156e-31 0 16 277 4130 0 ?279 275 280
 276 0 0 1 30 278 4305 0 280 276 281 0 +.85728846741604 .0889 .009525 -111022302
4625156e-31 1 0 16 280 4129 0 ?282 277 283 278 0 0 1 30 281 4304 0 283 278 284 0
 -.85728846741604 .0841375 .1143 0 0 1 16 283 4128 0 ?178 280 285 281 0 0 1 30 2
84 4300 0 285 281 286 0 +.628836680207707 .0841375 -.3783223894655155 -117756934
401283e-30 3925231146709465e-32 1 16 285 4124 0 ?148 283 287 284 0 0 1 30 286 42
99 0 287 284 288 0 -.608794678509132 .0889 .01361043334823304 .707106781186546 5
55111512312578e-31 -.707106781186549 16 287 4123 0 ?289 285 290 286 0 0 1 30 288
 4297 0 290 286 291 0 +.628836680207707 .0889 -.3783223894655155 -11775693440128
3e-30 3925231146709465e-32 1 16 290 4121 0 ?144 287 292 288 0 0 1 30 291 4296 0
 292 288 293 0 +.86681346741604 .0889 -.00169637625954104 -1110223024625156e-31
 1 -612323399573677e-31 16 292 4120 0 ?294 290 295 291 0 0 1 30 293 4295 0 295 2
91 296 0 +.85728846741604 .0841375 .009525 .647128816437566 255351295663786e-29
 -.762380675867453 16 295 4119 0 ?297 292 298 293 0 0 1 30 296 4294 0 298 293 29
9 0 +1.180577687774528 .0841375 -.3154605966180315 -.707106781186546 -5551115123
12578e-31 .707106781186549 16 298 4118 0 ?166 295 300 296 0 0 1 30 299 4293 0 30
0 296 301 0 -.857288467416039 .0841375 -.1178949619545092 -.707106781186549 -111
0223024625156e-31 -.707106781186546 16 300 4117 0 ?302 298 303 299 0 0 1 30 301
 4292 0 303 299 304 0 +.628836680207707 .0889 -.00643156835034263 -1110223024625
156e-31 1 -612323399573677e-31 16 303 4116 0 ?163 300 305 301 0 0 1 30 304 4291
 0 305 301 306 0 +1.05922169812496 .0841375 -.4368165862675985 -.707106781186546
 -555111512312578e-31 .707106781186549 16 305 4115 0 ?307 303 308 304 0 0 1 30 3
06 4290 0 308 304 309 0 +1.503866908133015 .0889 -.638749816976521 -.70710678118
6546 -555111512312578e-31 .707106781186549 16 308 4114 0 ?169 305 310 306 0 0 1
 30 309 4289 0 310 306 311 0 +.920150260263523 .0889 -.0550331691070253 -1110223
024625156e-31 1 -612323399573677e-31 16 310 4113 0 ?157 308 312 309 0 0 1 30 311
 4288 0 312 309 313 0 +.920150260263523 .0889 -.0550331691070253 .70710678118654
9 1110223024625156e-31 .707106781186546 16 312 4112 0 ?314 310 250 311 0 0 1 30
 313 4287 0 250 311 315 0 +.798794270613956 .0889 -.176389158756592 -11102230246
25156e-31 1 -612323399573677e-31 16 250 4111 0 ?154 312 237 313 0 0 1 30 315 408
0 0 316 313 317 0 -.620420648013052 .0889 .104775 -1 -1561055996379575e-31 0 16
 316 4019 0 ?194 318 27 315 0 0 1 30 317 4076 0 27 315 319 0 -.620420648013052 .
0841375 .104775 -1 -1561055996379575e-31 0 16 27 3978 0 ?26 316 253 317 0 0 1 30
 319 3339 0 320 317 321 0 --.857288467416042 .0841375 .1143 0 0 1 16 320 3165 0
 ?140 35 322 319 0 0 1 30 321 3338 0 322 319 323 0 +-.63219243224169 .0841375 .1
143 0 0 1 16 322 3164 0 ?324 320 325 321 0 0 1 30 323 3337 0 325 321 326 0 +-.60
5841296026105 .0889 .108123286437627 1 2220446049250315e-31 0 16 325 3163 0 ?327
 322 328 323 0 0 1 30 326 3332 0 328 323 329 0 +-.866813467416042 .0889 -.001696
376259540985 .647128816437568 -555111512312578e-31 .762380675867451 16 328 3156
 0 ?330 325 331 326 0 0 1 30 329 3329 0 331 326 332 0 +-.857288467416042 .0889 .
1143 0 0 -1 16 331 3153 0 ?137 328 333 329 0 0 1 30 332 3328 0 333 329 334 0 +-.
857288467416042 .0889 .108123286437627 -2220446049250315e-31 1 0 16 333 3152 0 ?
134 331 335 332 0 0 1 30 334 3327 0 335 332 336 0 +-.63219243224169 .0889 .10812
3286437627 -2220446049250315e-31 1 0 16 335 3151 0 ?131 333 337 334 0 0 1 30 336
 3326 0 337 334 338 0 +-.857288467416042 .0841375 .108123286437627 1 22204460492
50315e-31 0 16 337 3150 0 ?339 335 340 336 0 0 1 30 338 3325 0 340 336 341 0 +-.
63219243224169 .0889 .1143 0 0 1 16 340 3149 0 ?342 337 343 338 0 0 1 30 341 332
4 0 343 338 344 0 +-.63219243224169 .0889 .104775 -2220446049250315e-31 1 0 16 3
43 3148 0 ?345 340 346 341 0 0 1 30 344 3321 0 346 341 347 0 +-.628836680207708
 .0889 -.378322389465514 3925231146709445e-32 392523114670943e-31 1 16 346 3145
 0 ?90 343 348 344 0 0 1 30 347 3320 0 348 344 349 0 +-.628836680207708 .0889 -.
0064315683503428 -2220446049250315e-31 1 -612323399573677e-31 16 348 3144 0 ?119
 346 350 347 0 0 1 30 349 3319 0 350 347 351 0 --.81293640623769 .0889 -.1905312
94380323 .707106781186549 2220446049250315e-31 .707106781186546 16 350 3143 0 ?3
52 348 353 349 0 0 1 30 351 3317 0 353 349 354 0 +-.857288467416042 .0889 .00952
5 -2220446049250315e-31 1 0 16 353 3141 0 ?355 350 356 351 0 0 1 30 354 3316 0 3
56 351 357 0 +-.866813467416042 .0841375 -.001696376259540985 .647128816437568 -
555111512312578e-31 .762380675867451 16 356 3140 0 ?358 353 359 354 0 0 1 30 357
 3315 0 359 354 360 0 +-.628836680207708 .0841375 -.378322389465514 392523114670
9445e-32 392523114670943e-31 1 16 359 3139 0 ?94 356 361 357 0 0 1 30 360 3314 0
 361 357 362 0 +-.857288467416042 .0841375 -.117894961954509 .707106781186546 16
65334536937735e-31 -.707106781186549 16 361 3138 0 ?363 359 364 360 0 0 1 30 362
 3313 0 364 360 365 0 +-1.180577687774532 .0841375 -.3154605966180295 -.70710678
1186549 -2220446049250315e-31 -.707106781186546 16 364 3137 0 ?366 361 367 362 0
 0 1 30 365 3312 0 367 362 368 0 +-.798794270613959 .0889 -.1763891587565925 -22
20446049250315e-31 1 -612323399573677e-31 16 367 3136 0 ?113 364 369 365 0 0 1 3
0 368 3311 0 369 365 370 0 +-1.059221698124964 .0841375 -.436816586267597 -.7071
06781186549 -2220446049250315e-31 -.707106781186546 16 369 3135 0 ?371 367 372 3
68 0 0 1 30 370 3310 0 372 368 373 0 +-.857288467416042 .0889 .00782862374045885
 -.707106781186549 -2220446049250315e-31 -.707106781186546 16 372 3134 0 ?374 36
9 375 370 0 0 1 30 373 3309 0 375 370 376 0 +-.866813467416042 .0889 -.001696376
25954115 -1110223024625156e-31 1 -769525361837352e-30 16 375 3133 0 ?377 372 378
 373 0 0 1 30 376 3308 0 378 373 379 0 +-.920150260263526 .0889 -.05503316910702
48 .707106781186546 1665334536937735e-31 -.707106781186549 16 378 3132 0 ?380 37
5 381 376 0 0 1 30 379 3307 0 381 376 382 0 +-.920150260263526 .0889 -.055033169
1070248 -2220446049250315e-31 1 -612323399573677e-31 16 381 3131 0 ?101 378 318
 379 0 0 1 30 382 3306 0 318 379 383 0 +-.628836680207708 .0889 .009525 -2053912
59555654e-29 1 -72849279831047e-28 16 318 3128 0 ?384 381 316 382 0 0 1 30 383 3
098 0 385 382 386 0 --.620420648013052 .0889 .104775 -1 -1561055996379575e-31 0
 16 385 3026 0 ?37 387 35 383 0 0 1 30 386 3094 0 35 383 388 0 --.62042064801305
2 .0841375 .104775 -1 -1561055996379575e-31 0 16 35 3012 0 ?29 385 320 386 0 0 1
 30 388 48 0 389 386 390 0 +.3683 .0889 .0047625 1 0 0 16 389 381 0 ?391 392 393
 388 0 0 1 30 390 294 0 392 388 394 0 +.637 .0889 .00617671356237309 -1 0 0 16 3
92 1066 0 ?395 396 389 390 0 0 1 30 394 297 0 396 390 397 0 +.3483 .0889 .1143 0
 0 -1 16 396 295 0 ?398 399 392 394 0 0 1 30 397 391 0 399 394 400 0 +-.3483 .08
89 .00617671356237309 -1 0 0 16 399 389 0 ?401 402 396 397 0 0 1 30 400 394 0 40
2 397 403 0 +-.3483 .0889 .1143 0 0 -1 16 402 392 0 ?404 405 399 400 0 0 1 30 40
3 511 0 405 400 406 0 +-.608648863784415 .0889 .1143 0 0 1 16 405 509 0 ?407 408
 402 403 0 0 1 30 406 631 0 408 403 409 0 +-.635 .0889 .009525 1 156105599637957
5e-31 0 16 408 1426 0 ?410 411 405 406 0 0 1 30 409 1072 0 411 406 412 0 +.60864
8863784414 .0889 .1143 0 0 1 16 411 1070 0 ?413 414 408 409 0 0 1 30 412 1192 0
 414 409 415 0 +-.635 .0889 .009525 -1 -1561055996379575e-31 0 16 414 1355 0 ?41
6 417 411 412 0 0 1 30 415 1810 0 393 412 418 0 --.635 .0841375 .009525 1 156105
5996379575e-31 0 16 393 1631 0 ?419 389 420 415 0 0 1 30 418 1778 0 421 415 422
 0 +-.635 .0841375 .009525 1 1561055996379575e-31 0 16 421 1649 0 ?423 420 424 4
18 0 0 1 30 422 1777 0 424 418 425 0 +-.608648863784415 .0841375 .1143 0 0 1 16
 424 1651 0 ?426 421 427 422 0 0 1 30 425 1776 0 428 422 429 0 --.635 .0841375 .
00617671356237309 1 1561055996379575e-31 0 16 428 1659 0 ?430 427 431 425 0 0 1
 30 429 1775 0 427 425 432 0 --.3483 .0841375 .1143 0 0 1 16 427 1657 0 ?433 424
 428 429 0 0 1 30 432 1774 0 387 429 434 0 +-.635 .0841375 .0047625 1 1561055996
379575e-31 0 16 387 1687 0 ?435 436 385 432 0 0 1 30 434 1773 0 431 432 437 0 -.
3483 .0841375 .1143 0 0 1 16 431 1663 0 ?438 428 436 434 0 0 1 30 437 1772 0 436
 434 439 0 --.635 .0841375 .00617671356237309 1 1561055996379575e-31 0 16 436 16
65 0 ?440 431 387 437 0 0 1 30 439 1771 0 420 437 441 0 +.608648863784414 .08413
75 .1143 0 0 1 16 420 1633 0 ?442 393 421 439 0 0 1 30 441 2050 0 443 439 444 0
 +-.608648863784415 .0889 .009525 -1561055996379575e-31 1 0 16 443 1958 0 ?74 44
5 417 441 0 0 1 30 444 2051 0 445 441 446 0 +-.608648863784415 .0889 .0061767135
6237309 -1561055996379575e-31 1 0 16 445 1961 0 ?77 447 443 444 0 0 1 30 446 205
2 0 447 444 448 0 +-.3483 .0889 .00617671356237309 -1561055996379575e-31 1 0 16
 447 1964 0 ?80 449 445 446 0 0 1 30 448 2053 0 449 446 450 0 +-.3483 .0889 .004
7625 -1561055996379575e-31 1 0 16 449 1967 0 ?83 451 447 448 0 0 1 30 450 2054 0
 451 448 452 0 +.3483 .0889 .0047625 -1561055996379575e-31 1 0 16 451 1970 0 ?88
 453 449 450 0 0 1 30 452 2055 0 453 450 454 0 +.3483 .0889 .00617671356237309 -
1561055996379575e-31 1 0 16 453 1973 0 ?86 455 451 452 0 0 1 30 454 2056 0 455 4
52 456 0 +.608648863784414 .0889 .00617671356237309 -1561055996379575e-31 1 0 16
 455 1976 0 ?71 20 453 454 0 0 1 30 456 2057 0 417 454 16 0 +.608648863784414 .0
889 .009525 -1561055996379575e-31 1 0 16 417 1861 0 ?68 443 414 456 0 0 1 30 16
 4393 0 20 456 6 0 +-.612004615818397 .0889 .104775 0 1 72849279831047e-28 16 20
 4384 0 ?32 9 455 16 0 0 1 17 32 0 31 125 29 30 36 20 0 457 +15 31 3073 0 29 458
 0 17 125 0 31 33 32 123 37 385 0 345 -17 36 0 459 212 457 22 32 20 0 223 -17 45
7 0 459 36 460 30 218 230 0 0 -15 459 4587 0 36 461 0 17 460 0 459 457 212 216 4
62 251 0 463 +17 218 0 464 465 37 216 457 230 0 460 +15 464 700 0 466 14 0 17 46
5 0 464 467 218 213 463 468 0 469 +17 37 0 464 218 470 30 125 385 0 32 +17 470 0
 464 37 327 123 342 340 0 0 -17 327 0 464 470 471 129 472 325 0 342 +17 342 0 47
3 122 345 129 470 340 0 0 +15 473 3247 0 122 474 0 17 122 0 473 475 342 120 131
 335 0 324 -17 345 0 473 342 475 123 33 343 0 470 +17 475 0 473 345 122 91 324 3
22 0 0 -17 33 0 31 29 125 91 345 343 0 475 -17 324 0 23 476 34 120 475 322 0 339
 +17 476 0 23 140 324 126 339 337 0 477 -17 34 0 23 324 223 91 29 35 0 33 -17 33
9 0 478 131 128 120 476 337 0 0 +15 478 3252 0 128 479 0 17 131 0 478 472 339 12
9 122 335 0 327 +17 128 0 478 339 472 126 134 333 0 476 -17 472 0 478 128 131 13
2 327 325 0 0 -17 134 0 480 137 477 132 128 333 0 471 +15 480 3258 0 481 482 0 1
7 137 0 480 481 134 135 471 331 0 355 +17 477 0 480 134 481 126 140 320 0 0 -17
 471 0 464 327 330 132 137 331 0 472 -17 330 0 464 471 116 135 483 328 0 0 +17 1
16 0 464 330 484 114 374 372 0 377 -17 483 0 485 486 355 114 330 328 0 0 -15 485
 3228 0 358 487 0 17 486 0 485 358 483 105 377 375 0 488 -17 355 0 485 483 358 1
35 481 353 0 330 +17 358 0 485 355 486 138 488 356 0 0 +17 481 0 480 477 137 138
 355 353 0 358 -17 488 0 23 366 140 105 358 356 0 0 -17 366 0 23 363 488 102 107
 364 0 489 +17 140 0 23 488 476 138 477 320 0 481 +17 363 0 23 490 366 95 489 36
1 0 371 +17 107 0 491 377 104 105 366 364 0 486 -17 489 0 492 101 98 102 363 361
 0 0 -15 492 3208 0 98 493 0 17 101 0 492 380 489 99 104 381 0 484 +17 98 0 492
 489 380 95 113 367 0 363 -17 380 0 492 98 101 111 484 378 0 0 +17 113 0 494 495
 371 111 98 367 0 352 +15 494 3219 0 110 496 0 17 495 0 494 110 113 117 352 350
 0 0 -17 371 0 494 113 110 95 490 369 0 0 +17 352 0 464 484 497 111 495 350 0 38
0 +17 484 0 464 116 352 99 380 378 0 374 -17 497 0 464 352 466 117 90 346 0 495
 -17 466 0 464 497 407 56 410 408 0 384 -17 90 0 498 499 119 56 497 346 0 466 +1
5 498 3238 0 90 500 0 17 499 0 498 501 90 92 384 318 0 0 -17 119 0 498 90 501 11
7 110 348 0 497 +17 501 0 498 119 499 108 94 359 0 0 -17 110 0 494 371 495 108 1
19 348 0 490 -17 490 0 23 94 363 108 371 369 0 501 -17 94 0 23 423 490 92 501 35
9 0 502 +17 423 0 23 503 94 48 502 421 0 426 +17 502 0 504 384 66 92 423 421 0 4
99 -15 504 1959 0 66 505 0 17 384 0 504 410 502 56 499 318 0 0 +17 66 0 504 502
 410 48 74 443 0 423 -17 410 0 504 66 384 72 466 408 0 0 +17 74 0 506 507 426 72
 66 443 0 407 +15 506 1962 0 64 508 0 17 507 0 506 64 74 75 407 405 0 0 -17 426
 0 506 74 64 48 503 424 0 0 +17 407 0 464 466 401 72 507 405 0 410 +17 401 0 464
 407 509 75 510 399 0 507 +17 509 0 464 401 511 78 404 402 0 510 -17 510 0 512 6
1 77 78 401 399 0 0 -15 512 1965 0 61 513 0 17 61 0 512 430 510 59 80 447 0 514
 -17 77 0 512 510 430 75 64 445 0 401 +17 430 0 512 77 61 62 514 428 0 0 +17 64
 0 506 426 507 62 77 445 0 503 -17 503 0 23 514 423 62 426 424 0 430 -17 514 0 2
3 433 503 59 430 428 0 515 -17 433 0 23 435 514 52 515 427 0 516 +17 515 0 517 8
0 58 59 433 427 0 0 -15 517 1968 0 58 518 0 17 80 0 517 404 515 78 61 447 0 509
 +17 58 0 517 515 404 52 83 449 0 433 -17 404 0 517 58 80 81 509 402 0 0 +17 83
 0 519 391 516 81 58 449 0 511 +15 519 1971 0 55 520 0 17 391 0 519 55 83 44 511
 389 0 0 +17 516 0 519 83 55 52 435 387 0 0 -17 511 0 464 509 398 81 391 389 0 4
04 -17 398 0 464 511 395 44 521 396 0 391 +17 395 0 464 398 522 84 523 392 0 521
 +17 521 0 524 51 88 84 398 396 0 0 -15 524 1974 0 51 525 0 17 51 0 524 438 521
 49 86 453 0 526 -17 88 0 524 521 438 44 55 451 0 398 +17 438 0 524 88 51 53 526
 431 0 0 +17 55 0 519 516 391 53 88 451 0 435 -17 435 0 23 526 433 53 516 387 0
 438 +17 526 0 23 527 435 49 438 431 0 440 -17 527 0 23 442 526 45 440 436 0 528
 -17 440 0 529 86 47 49 527 436 0 0 +15 529 1977 0 47 12 0 17 86 0 529 523 440 8
4 51 453 0 395 +17 47 0 529 440 523 45 71 455 0 527 -17 523 0 529 47 86 69 395 3
92 0 0 -17 71 0 530 413 528 69 47 455 0 522 +15 530 1563 0 528 531 0 17 413 0 53
0 43 71 38 522 411 0 416 +17 528 0 530 71 43 45 442 420 0 0 -17 522 0 464 395 41
6 69 413 411 0 523 -17 416 0 464 522 144 38 532 414 0 0 +17 144 0 464 416 289 14
2 533 290 0 532 +17 532 0 534 535 68 142 416 414 0 269 -15 534 1863 0 532 536 0
 17 535 0 534 419 532 145 269 267 0 0 -17 68 0 534 532 419 38 43 417 0 413 +17 2
69 0 537 533 148 142 535 267 0 0 +15 537 4218 0 172 538 0 17 533 0 537 172 269 1
61 144 290 0 0 -17 148 0 537 269 172 145 539 285 0 540 +17 172 0 537 148 533 170
 163 303 0 539 -17 539 0 23 541 540 170 148 285 0 307 -17 540 0 23 539 442 145 4
19 393 0 535 -17 442 0 23 540 527 41 528 420 0 419 +17 419 0 534 68 535 41 540 3
93 0 0 +17 541 0 23 302 539 158 307 305 0 542 -17 307 0 543 163 160 170 541 305
 0 0 +15 543 4199 0 160 544 0 17 163 0 543 545 307 161 172 303 0 289 +17 160 0 5
43 307 545 158 154 250 0 541 -17 545 0 543 160 163 152 289 287 0 0 -17 154 0 546
 314 542 152 160 250 0 547 +15 546 4188 0 151 548 0 17 314 0 546 151 154 155 547
 312 0 0 +17 542 0 546 154 151 158 302 300 0 0 -17 547 0 464 289 549 152 314 312
 0 545 -17 289 0 464 144 547 161 545 287 0 533 +17 549 0 464 547 266 155 169 308
 0 314 -17 266 0 464 549 192 167 550 264 0 0 +17 169 0 551 552 157 167 549 308 0
 294 +15 551 4194 0 552 553 0 17 552 0 551 554 169 164 294 292 0 297 -17 157 0 5
51 169 554 155 151 310 0 549 +17 294 0 555 550 297 167 552 292 0 266 +15 555 420
8 0 556 557 0 17 550 0 555 556 294 190 266 264 0 0 -17 297 0 555 294 556 164 558
 295 0 0 +17 556 0 555 297 550 176 282 280 0 558 -17 558 0 23 559 166 176 297 29
5 0 0 -17 559 0 23 560 558 173 178 283 0 279 -17 166 0 23 558 302 164 554 298 0
 552 +17 302 0 23 166 541 149 542 300 0 554 +17 554 0 551 157 552 149 166 298 0
 0 -17 560 0 23 25 559 179 279 277 0 274 -17 178 0 561 282 175 176 559 283 0 556
 +17 279 0 562 184 181 173 560 277 0 0 +15 562 4233 0 181 563 0 17 184 0 562 564
 279 182 175 275 0 260 +17 181 0 562 279 564 179 189 270 0 560 -17 564 0 562 181
 184 187 260 258 0 0 -17 189 0 565 566 274 187 181 270 0 263 +15 565 4238 0 567
 568 0 17 566 0 565 567 189 96 263 261 0 0 -17 274 0 565 189 567 179 25 272 0 0
 +17 263 0 464 260 194 187 566 261 0 564 +17 260 0 464 192 263 182 564 258 0 569
 +17 194 0 464 263 236 96 196 316 0 255 +17 236 0 464 194 240 146 203 237 0 0 +1
7 196 0 570 28 255 146 194 316 0 19 -17 255 0 570 196 26 96 567 253 0 566 +15 57
0 4043 0 28 571 0 17 26 0 570 255 28 185 21 27 0 567 +17 567 0 565 274 566 185 2
55 253 0 25 -17 25 0 23 21 560 185 274 272 0 0 -17 28 0 570 26 196 10 19 9 0 220
 -17 19 0 229 203 220 146 28 9 0 236 +14 255 571 4040 572 ?548 482 570 4 573 +0
 0 548 482 18 81 255 1 572 5089 574 571 575 0 0 576 577 14 548 4183 576 ?553 571
 546 4 578 +0 0 553 571 18 14 482 3253 579 ?571 479 480 4 580 +0 0 571 479 18 50
 573 4066 0 571 581 582 0 -.620420648013052 .08651875 .104775 0 0 -1 -1 -1561055
996379575e-31 0 13 18 1557 0 0 0 0 0 0 8 12 14 12 1978 583 ?525 0 529 4 584 +0 0
 525 0 18 81 1 583 5095 574 12 585 0 579 586 587 14 525 1975 586 ?520 12 524 4 5
88 +0 0 520 12 18 50 584 2016 0 12 588 15 0 -.637 .0889 .00617671356237309 0 0 1
 -1 0 0 50 588 2015 0 525 589 584 0 -.3483 .0889 .1143 -1 -1561055996379575e-31
 0 0 0 -1 50 15 2017 0 531 584 5 0 +.608648863784414 .0889 .1143 1 1561055996379
575e-31 0 0 0 1 14 531 1556 590 ?14 536 530 4 15 +0 0 14 536 18 81 1 590 5099 57
4 531 591 0 586 592 593 14 14 701 592 ?224 531 464 4 5 -0 0 224 531 18 14 536 18
64 594 ?531 505 534 4 595 +0 0 531 505 18 81 1 594 5105 574 536 596 0 592 597 59
8 14 505 1960 597 ?536 508 504 4 599 +0 0 536 508 18 50 595 1979 0 536 600 599 0
 --.635 .0889 .009525 0 0 1 -1 -1561055996379575e-31 0 50 600 1770 0 224 601 595
 0 +-.635 .0841375 .1143 1561055996379575e-31 -1 0 1 1561055996379575e-31 0 50 5
99 2010 0 505 595 602 0 +-.635 .0889 .009525 0 0 -1 1 1561055996379575e-31 0 50
 602 2011 0 508 599 603 0 --.608648863784415 .0889 .1143 1 1561055996379575e-31
 0 0 0 1 14 508 1963 604 ?505 513 506 4 602 +0 0 505 513 18 50 603 2012 0 513 60
2 605 0 --.3483 .0889 .00617671356237309 0 0 1 -1 0 0 14 513 1966 606 ?508 518 5
12 4 603 +0 0 508 518 18 50 605 2013 0 518 603 589 0 +-.3483 .0889 .1143 -1 -156
1055996379575e-31 0 0 0 -1 14 518 1969 607 ?513 520 517 4 605 +0 0 513 520 18 50
 589 2014 0 520 605 588 0 +.3683 .0889 .0047625 0 0 -1 1 0 0 14 520 1972 608 ?51
8 525 519 4 589 +0 0 518 525 18 81 1 608 5116 574 520 609 0 607 610 611 80 255 1
 574 612 613 9000 1 1 1 1 1 1 1 1 0 FFFFTFTFFFFFFF1 81 1 609 4901 614 520 0 608
 615 616 617 81 1 607 5114 574 518 616 0 606 608 618 81 1 610 5119 574 224 619 0
 608 620 621 82 255 1 611 -649199359 14 224 1564 610 ?458 14 23 4 600 +0 0 458 1
4 18 81 1 619 4909 614 224 0 610 622 623 624 81 1 620 5122 574 458 623 0 610 625
 626 82 1 621 -633732863 14 458 3070 620 ?493 224 31 4 601 +0 0 493 224 18 81 1
 623 4910 614 458 0 620 619 627 628 81 1 625 5124 574 493 627 0 620 629 630 82 1
 626 -238812927 14 493 3203 625 ?631 458 492 4 582 +0 0 631 458 18 81 1 627 4911
 614 493 0 625 623 632 633 81 1 629 5126 574 631 632 0 625 634 635 82 1 630 -648
019711 14 631 3209 629 ?496 493 491 4 636 +0 0 496 493 18 81 1 632 4912 614 631
 0 629 627 637 638 81 1 634 5128 574 496 637 0 629 639 640 82 1 635 -625409791 1
4 496 3215 634 ?487 631 494 4 641 +0 0 487 631 18 81 1 637 4913 614 496 0 634 63
2 642 643 81 1 639 5130 574 487 642 0 634 644 645 82 1 640 -648150783 14 487 322
5 639 ?500 496 485 4 646 +0 0 500 496 18 81 1 642 4914 614 487 0 639 637 647 648
 81 1 644 5133 574 500 647 0 639 649 650 82 1 645 -325779199 14 500 3234 644 ?47
4 487 498 4 651 +0 0 474 487 18 81 1 647 4915 614 500 0 644 642 652 653 81 1 649
 5135 574 474 652 0 644 654 655 82 1 650 -648281855 14 474 3243 649 ?479 500 473
 4 656 +0 0 479 500 18 81 1 652 4916 614 474 0 649 647 657 658 81 1 654 5137 574
 479 657 0 649 659 660 82 1 655 -647495423 14 479 3248 654 ?482 474 478 4 661 +0
 0 482 474 18 81 1 657 4917 614 479 0 654 652 662 663 81 1 659 5139 574 553 664
 0 654 665 666 82 1 660 -647626495 14 553 4189 659 ?544 548 551 4 667 +0 0 544 5
48 18 81 1 664 4921 614 553 0 659 668 669 670 81 1 665 5141 574 544 669 0 659 67
1 672 82 1 666 -645398271 14 544 4195 665 ?557 553 543 4 673 +0 0 557 553 18 81
 1 669 4922 614 544 0 665 664 674 675 81 1 671 5143 574 557 674 0 665 676 677 82
 1 672 -645136127 14 557 4205 671 ?538 544 555 4 678 +0 0 538 544 18 81 1 674 49
23 614 557 0 671 669 679 680 81 1 676 5146 574 538 679 0 671 681 682 82 1 677 -1
47848959 14 538 4214 676 ?683 557 537 4 684 +0 0 683 557 18 81 1 679 4924 614 53
8 0 676 674 685 686 81 1 681 5148 574 683 685 0 676 687 688 82 1 682 -649789183
 14 683 4223 681 ?563 538 561 4 689 +0 0 563 538 18 81 1 685 4925 614 683 0 681
 679 690 691 81 1 687 5150 574 563 690 0 681 692 693 82 1 688 -645660415 14 563
 4229 687 ?568 683 562 4 694 +0 0 568 683 18 81 1 690 4926 614 563 0 687 685 695
 696 81 1 692 5152 574 568 695 0 687 697 698 82 1 693 -645791487 14 568 4234 692
 ?461 563 565 4 581 +0 0 461 563 18 81 1 695 4927 614 568 0 692 690 699 700 81 1
 697 5155 574 461 699 0 692 701 702 82 1 698 -645922559 14 461 4584 697 ?235 568
 459 4 703 +0 0 235 568 18 81 1 699 4928 614 461 0 697 695 704 705 81 1 701 5158
 574 235 704 0 697 706 707 82 1 702 26476801 14 235 4594 701 ?243 461 229 4 708
 +0 0 243 461 18 81 1 704 4929 614 235 0 701 699 709 710 81 1 706 5160 574 243 7
09 0 701 711 712 82 1 707 25493761 14 243 4698 706 ?713 235 238 4 714 +0 0 713 2
35 18 81 1 709 4930 614 243 0 706 704 715 716 81 1 711 5162 574 713 715 0 706 71
7 718 82 1 712 -646577919 14 713 4703 711 ?719 243 720 4 721 +0 0 719 243 18 81
 1 715 4931 614 713 0 711 709 722 723 81 1 717 5164 574 719 722 0 711 0 724 82 1
 718 -646708991 14 719 4709 717 ?0 713 725 4 726 +0 0 0 713 18 81 1 722 4932 614
 719 0 717 715 0 727 82 1 724 -646840063 80 1 614 0 728 8001 0 0 0 0 3 5 0 0 0 F
FFFTFTFFFFFFF2 83 255 3 727 .792156862745098 .819607843137255 .933333333333333 7
9 255 15 728 SDL/TYSA_COLOUR15 725 4713 0 462 719 0 50 726 4745 0 719 721 703 0
 +-.452832403954599 .0889 .27990378021414 -.707106781186546 -1536811308969665e-3
1 .707106781186549 .707106781186549 670855252734177e-31 .707106781186546 50 721
 4746 0 713 714 726 0 +-.4572 .0889 .284271376259541 -171282532936092e-30 -61232
3399573677e-31 1 1 1561055996379575e-31 1712825329360925e-31 50 703 4610 0 461 7
26 708 0 +-.612004615818397 .08651875 .1103856881297704 -1 -1561055996379575e-31
 0 0 0 1 50 708 4608 0 235 703 578 0 -.612004615818396 .08651875 .11038568812977
04 -1 -1561055996379575e-31 0 0 0 1 50 578 4284 0 548 708 667 0 +.92015026026352
3 .0889 -.0550331691070253 .707106781186546 555111512312578e-31 -.70710678118654
9 .707106781186549 1110223024625156e-31 .707106781186546 50 667 4283 0 553 578 6
73 0 +1.503866908133015 .0889 -.638749816976521 .707106781186549 111022302462515
6e-31 .707106781186546 -.707106781186546 -555111512312578e-31 .707106781186549 5
0 673 4282 0 544 667 678 0 +.608794678509132 .0889 .01361043334823304 -.70710678
1186549 -1110223024625156e-31 -.707106781186546 .707106781186546 555111512312578
e-31 -.707106781186549 50 678 4280 0 557 673 684 0 +.85728846741604 .08651875 .0
09525 .762380675867453 1665334536937735e-31 .647128816437566 .647128816437566 25
5351295663786e-29 -.762380675867453 50 684 4278 0 538 678 689 0 -.62883668020770
7 .0889 -.3783223894655155 1 1110223024625156e-31 1110223024625156e-31 -11775693
4401283e-30 3925231146709465e-32 1 50 689 4276 0 683 684 694 0 -.85728846741604
 .0889 .1143 -1 -1110223024625156e-31 0 0 0 -1 50 694 4275 0 563 689 581 0 -.857
28846741604 .0889 .108123286437627 0 0 -1 1 1110223024625156e-31 0 50 581 4274 0
 568 694 573 0 -.632192432241689 .0889 .1143 1 1110223024625156e-31 0 0 0 1 50 7
14 4747 0 243 0 721 0 +.630632403954598 .0889 .1021037802141402 .707106781186549
 670855252734177e-31 .707106781186546 .707106781186546 1536811308969665e-31 -.70
7106781186549 17 462 0 725 729 463 210 460 251 0 730 -17 729 0 725 215 462 204 7
30 731 0 0 +17 463 0 725 462 215 216 465 468 0 0 -16 251 4668 0 ?460 231 732 733
 0 0 1 17 730 0 23 223 225 210 729 731 0 0 -17 223 0 23 34 730 22 212 231 0 0 -1
7 225 0 23 730 219 204 228 241 0 729 -16 731 4659 0 ?729 734 244 735 0 0 1 16 73
4 4660 0 ?215 468 731 736 0 0 1 16 244 4658 0 ?209 731 241 737 0 0 1 30 735 4754
 0 731 736 737 0 +-.452832403954599 .0841375 .27990378021414 .707106781186549 67
0855252734177e-31 .707106781186546 30 736 4755 0 734 738 735 0 +-.44846480790919
8 .0889 .284271376259541 -1561055996379575e-31 1 612323399573677e-31 30 737 4753
 0 244 735 247 0 +.448464807909198 .0889 .2842713762595415 -1561055996379575e-31
 1 612323399573677e-31 30 247 4752 0 241 737 242 0 +0 .0841375 .284271376259541
 1 1561055996379575e-31 1561055996379575e-31 16 241 4657 0 ?228 244 234 247 0 0
 1 17 228 0 720 209 206 198 225 241 0 0 +15 720 4708 0 206 713 0 17 209 0 720 46
9 228 207 200 244 0 467 +17 206 0 720 228 469 204 215 734 0 225 -17 469 0 720 20
6 209 213 467 739 0 0 -17 215 0 725 463 729 213 206 734 0 465 +17 467 0 464 240
 465 207 469 739 0 239 +16 739 4666 0 ?467 732 468 740 0 0 1 16 732 4667 0 ?240
 251 739 741 0 0 1 16 468 4665 0 ?465 739 734 738 0 0 1 30 740 4759 0 739 741 73
8 0 +-.4572 .0889 .284271376259541 1 1561055996379575e-31 1712825329360925e-31 3
0 741 4760 0 732 733 740 0 +.630632403954598 .0889 .1021037802141402 .7071067811
86546 1536811308969665e-31 -.707106781186549 30 738 4758 0 468 740 736 0 +-.4528
32403954599 .0889 .27990378021414 .707106781186549 670855252734177e-31 .70710678
1186546 30 733 4761 0 251 0 741 0 +-.612004615818397 .0889 .1207315683503426 -15
61055996379575e-31 1 612323399573677e-31 17 240 0 464 236 467 201 239 732 0 0 +1
7 239 0 238 200 233 207 240 732 0 0 -17 212 0 459 460 36 210 223 231 0 462 +83 3
 723 .792156862745098 .819607843137255 .933333333333333 83 3 716 .79215686274509
8 .819607843137255 .933333333333333 83 3 710 .792156862745098 .819607843137255 .
933333333333333 83 3 705 .792156862745098 .819607843137255 .933333333333333 83 3
 700 .792156862745098 .819607843137255 .933333333333333 83 3 696 .79215686274509
8 .819607843137255 .933333333333333 83 3 691 .792156862745098 .819607843137255 .
933333333333333 15 561 4228 0 175 683 0 17 175 0 561 178 569 173 184 275 0 559 -
17 569 0 561 175 282 182 192 256 0 0 -17 282 0 561 569 178 190 556 280 0 550 +17
 192 0 464 266 260 190 569 256 0 282 +83 3 686 .792156862745098 .819607843137255
 .933333333333333 83 3 680 .792156862745098 .819607843137255 .933333333333333 83
 3 675 .792156862745098 .819607843137255 .933333333333333 81 1 668 4920 614 548
 0 576 575 664 742 83 3 670 .792156862745098 .819607843137255 .933333333333333 8
1 1 576 5091 574 548 668 0 572 579 743 81 1 575 4919 614 571 0 572 662 668 744 8
3 3 742 .792156862745098 .819607843137255 .933333333333333 81 1 662 4918 614 482
 0 579 657 575 745 83 3 744 .792156862745098 .819607843137255 .933333333333333 8
1 1 579 5093 574 482 662 0 576 583 746 83 3 745 .792156862745098 .81960784313725
5 .933333333333333 82 1 746 -647757567 82 1 743 -645267199 83 3 663 .79215686274
5098 .819607843137255 .933333333333333 50 661 3295 0 479 656 580 0 --.6058412960
26105 .0889 .108123286437627 0 0 -1 1 2220446049250315e-31 0 50 656 3296 0 474 6
51 661 0 +-.63219243224169 .0889 .1143 1 2220446049250315e-31 0 0 0 1 50 580 329
4 0 482 661 601 0 +-.857288467416042 .0889 .1143 -1 -2220446049250315e-31 0 0 0
 -1 50 601 3084 0 458 580 600 0 --.620420648013052 .08651875 .104775 0 0 -1 -1 -
1561055996379575e-31 0 50 651 3298 0 500 646 656 0 +-.628836680207708 .0889 -.37
8322389465514 1 2220446049250315e-31 0 3925231146709445e-32 392523114670943e-31
 1 50 646 3300 0 487 641 651 0 +-.866813467416042 .08651875 -.001696376259540985
 -.762380675867451 -1110223024625156e-31 .647128816437569 .647128816437568 -5551
11512312578e-31 .762380675867451 50 641 3302 0 496 636 646 0 +-.81293640623769 .
0889 -.190531294380323 .707106781186546 1665334536937735e-31 -.707106781186549 .
707106781186549 2220446049250315e-31 .707106781186546 50 636 3303 0 631 582 641
 0 +-.857288467416042 .0889 .00782862374045885 -.707106781186546 -16653345369377
35e-31 .707106781186549 -.707106781186549 -2220446049250315e-31 -.70710678118654
6 50 582 3304 0 493 573 636 0 +-.920150260263526 .0889 -.0550331691070248 -.7071
06781186549 -2220446049250315e-31 -.707106781186546 .707106781186546 16653345369
37735e-31 -.707106781186549 83 3 658 .792156862745098 .819607843137255 .93333333
3333333 83 3 653 .792156862745098 .819607843137255 .933333333333333 83 3 648 .79
2156862745098 .819607843137255 .933333333333333 83 3 643 .792156862745098 .81960
7843137255 .933333333333333 83 3 638 .792156862745098 .819607843137255 .93333333
3333333 15 491 3214 0 104 631 0 17 104 0 491 107 374 102 101 381 0 366 -17 374 0
 491 104 377 99 116 372 0 0 +17 377 0 491 374 107 114 486 375 0 483 +83 3 633 .7
92156862745098 .819607843137255 .933333333333333 83 3 628 .792156862745098 .8196
07843137255 .933333333333333 81 1 622 4908 614 14 0 592 591 619 747 83 3 624 .79
2156862745098 .819607843137255 .933333333333333 81 1 592 5102 574 14 622 0 590 5
94 748 81 1 591 4907 614 531 0 590 596 622 749 83 3 747 .792156862745098 .819607
843137255 .933333333333333 81 1 596 4906 614 536 0 594 750 591 751 83 3 749 .792
156862745098 .819607843137255 .933333333333333 81 1 750 4905 614 505 0 597 752 5
96 753 83 3 751 .792156862745098 .819607843137255 .933333333333333 81 1 597 5108
 574 505 750 0 594 604 754 81 1 752 4904 614 508 0 604 755 750 756 83 3 753 .792
156862745098 .819607843137255 .933333333333333 81 1 604 5110 574 508 752 0 597 6
06 757 81 1 755 4903 614 513 0 606 616 752 758 83 3 756 .792156862745098 .819607
843137255 .933333333333333 81 1 606 5112 574 513 755 0 604 607 759 81 1 616 4902
 614 518 0 607 609 755 760 83 3 758 .792156862745098 .819607843137255 .933333333
333333 83 3 760 .792156862745098 .819607843137255 .933333333333333 82 1 759 -648
937215 82 1 757 -648806143 82 1 754 -648675071 82 1 748 -632094463 82 1 618 -649
068287 81 1 615 4900 614 525 0 586 585 609 761 83 3 617 .792156862745098 .819607
843137255 .933333333333333 81 1 586 5097 574 525 615 0 583 590 762 81 1 585 4899
 614 12 0 583 0 615 763 83 3 761 .792156862745098 .819607843137255 .933333333333
333 83 3 763 .792156862745098 .819607843137255 .933333333333333 82 1 762 -649461
503 79 14 613 SWEntUnchanged82 1 598 -632422143 82 1 593 -632225535 82 1 587 -64
9592575 82 1 577 -60292863 17 151 0 546 542 314 149 157 310 0 302 -17 43 0 530 5
28 413 41 68 417 0 442 -19 13 1560 0 1 0 8 4 S74 4 CI16 index_map_offset0 0 1 dC
CZ20 11 2 0 0 717 722 0 0 0 0 0 0 0 0 0 0 0 0 0 0 0 0 0 0 1 0 
