**ABCDEFGHIJKLMNOPQRSTUVWXYZabcdefghijklmnopqrstuvwxyz**************************
**PARASOLID !"#$%&'()*+,-./:;<=>?@[\]^_`{|}~0123456789**************************
**PART1;
MC=AMD64;
MC_MODEL=Intel64 Family 6 Model 58 Stepping 9, GenuineIntel;
MC_ID=unknown;
OS=Windows_NT;
OS_RELEASE=unknown;
FRU=Parasolid Version 24.1, build 257,  2-12-2013;
APPL=SolidWorks 2013-2013086;
SITE=;
USER=unknown;
FORMAT=text;
GUISE=transmit;
KEY=Final Case Top V4;
FILE=Final Case Top V4.x_t;
DATE=Sun Mar 09 11:55:08 2014;
**PART2;
SCH=SCH_2401257_20000;
USFLD_SIZE=0;
**PART3;
**END_OF_HEADER*****************************************************************
T51 : TRANSMIT FILE created by modeller version 240125723 SCH_2401257_20000_1300
6189 0 12 27 CCCCCCCCCCCCCCCCCCCCCCCA16 index_map_offset0 0 1 dA9 index_map82 0
 A17 node_id_index_map82 0 A20 schema_embedding_map82 0 Z1 7536 2 3 0 0 0 0 1e3
 1e-8 0 4 0 1 0 1 1 5 6 7 8 9 10 11 0 0 0 0 81 255 2 2 7304 12 1 0 0 0 0 13 0 70
 11 CI9 list_type0 0 1 uI10 notransmit0 0 1 lCCCDCCDI12 finger_index0 0 1 dI12 f
inger_block1012 0 CZ3 0 4 T1 0 0 3 20 1 14 14 13 255 5 94 0 1 0 15 0 0 16 0 50 2
55 6 7256 0 15 17 0 0 +0 .0381 0 0 -1 0 0 0 -1 30 255 7 6821 0 10 18 0 0 +.35242
5 .0381 -.501525 0 1 -1165588477296752e-29 29 255 8 6824 0 11 19 0 .352425 .0333
375 -.501525 19 255 9 1055 0 1 16 0 20 V16 255 10 6812 0 ?21 0 22 7 0 0 1 18 255
 11 6822 0 23 0 24 8 ?1 17 255 23 0 25 26 27 11 28 29 0 30 -18 24 6806 0 31 11 3
2 19 ?1 17 31 0 33 34 35 24 36 37 0 38 +18 32 6790 0 39 24 40 41 ?1 29 19 6808 0
 24 41 8 .352425 .0333375 -.009525 29 41 6792 0 32 42 19 .352425 .0381 -.009525
 29 42 6335 0 40 43 41 -.352425 .0333375 -.009525 18 40 6333 0 44 32 45 42 ?1 29
 43 6319 0 45 46 42 -.352425 .0381 -.00952499999999989 18 45 6317 0 47 40 48 43
 ?1 29 46 5880 0 48 49 43 -.352425 .0333375 -.501525 18 48 5878 0 50 45 51 46 ?1
 29 49 5781 0 52 53 46 -.366018577759541 .0333375 -.00617671356237304 18 52 5668
 0 54 55 56 49 ?1 29 53 5782 0 55 57 49 -.366018577759541 .0381 -.00952499999999
988 18 55 5669 0 58 59 52 53 ?1 29 57 5783 0 59 60 53 -.392221376259541 .0333375
 -.00617671356237303 18 59 5670 0 61 62 55 57 ?1 29 60 5784 0 62 63 57 -.3660185
77759541 .0381 -.00617671356237304 18 62 5671 0 64 65 59 60 ?1 29 63 5785 0 65 6
6 60 -.392221376259541 .0333375 -.504873286437627 18 65 5672 0 67 68 62 63 ?1 29
 66 5786 0 68 69 63 -.392221376259541 .0381 -.00617671356237304 18 68 5673 0 70
 71 65 66 ?1 29 69 5787 0 71 72 66 -.366018577759541 .0333375 -.504873286437627
 18 71 5674 0 73 74 68 69 ?1 29 72 5788 0 74 75 69 -.392221376259541 .0381 -.504
873286437627 18 74 5675 0 76 77 71 72 ?1 29 75 5789 0 77 78 72 -.366018577759541
 .0333375 -.501525 18 77 5676 0 79 80 74 75 ?1 29 78 5790 0 80 81 75 -.366018577
759541 .0381 -.504873286437627 18 80 5677 0 82 83 77 78 ?1 29 81 5791 0 83 84 78
 -.366018577759541 .0381 -.501525 18 83 5678 0 85 51 80 81 ?1 29 84 5792 0 51 86
 81 -.366018577759541 .0333375 -.00952499999999988 18 51 5679 0 87 48 83 84 ?1 2
9 86 6083 0 56 88 84 -.352425 .0381 -.501525 18 56 6026 0 89 52 90 86 ?1 29 88 6
250 0 91 92 86 -.355773286437627 .0333375 -.515118577759541 18 91 6137 0 93 94 9
5 88 ?1 29 92 6251 0 94 96 88 -.352425 .0381 -.515118577759541 18 94 6138 0 97 9
8 91 92 ?1 29 96 6252 0 98 99 92 -.355773286437627 .0333375 -.541321376259541 18
 98 6139 0 100 101 94 96 ?1 29 99 6253 0 101 102 96 -.355773286437627 .0381 -.51
5118577759541 18 101 6140 0 103 104 98 99 ?1 29 102 6254 0 104 105 99 .355773286
4376265 .0333375 -.541321376259541 18 104 6141 0 106 107 101 102 ?1 29 105 6255
 0 107 108 102 -.355773286437627 .0381 -.541321376259541 18 107 6142 0 109 110 1
04 105 ?1 29 108 6256 0 110 111 105 .3557732864376265 .0333375 -.515118577759541
 18 110 6143 0 112 113 107 108 ?1 29 111 6257 0 113 114 108 .3557732864376265 .0
381 -.541321376259541 18 113 6144 0 115 116 110 111 ?1 29 114 6258 0 116 117 111
 .352425 .0333375 -.515118577759541 18 116 6145 0 28 118 113 114 ?1 29 117 6259
 0 118 119 114 .3557732864376265 .0381 -.515118577759541 18 118 6146 0 120 121 1
16 117 ?1 29 119 6260 0 121 122 117 .352425 .0381 -.515118577759541 18 121 6147
 0 123 90 118 119 ?1 29 122 6261 0 90 124 119 -.352425 .0333375 -.51511857775954
1 18 90 6148 0 125 56 121 122 ?1 29 124 6721 0 126 127 122 .3557732864376265 .03
33375 .00406857775954103 18 126 6608 0 128 129 130 124 ?1 29 127 6722 0 129 131
 124 .352425 .0381 .00406857775954103 18 129 6609 0 132 133 126 127 ?1 29 131 67
23 0 133 134 127 .3557732864376265 .0333375 .03027137625954105 18 133 6610 0 135
 136 129 131 ?1 29 134 6724 0 136 137 131 .3557732864376265 .0381 .0040685777595
4103 18 136 6611 0 138 139 133 134 ?1 29 137 6725 0 139 140 134 -.35577328643762
7 .0333375 .03027137625954115 18 139 6612 0 141 142 136 137 ?1 29 140 6726 0 142
 143 137 .3557732864376265 .0381 .03027137625954105 18 142 6613 0 144 145 139 14
0 ?1 29 143 6727 0 145 146 140 -.355773286437627 .0333375 .00406857775954114 18
 145 6614 0 147 148 142 143 ?1 29 146 6728 0 148 149 143 -.355773286437627 .0381
 .03027137625954115 18 148 6615 0 150 151 145 146 ?1 29 149 6729 0 151 152 146 -
.352425 .0333375 .00406857775954114 18 151 6616 0 153 154 148 149 ?1 29 152 6730
 0 154 155 149 -.355773286437627 .0381 .00406857775954114 18 154 6617 0 156 157
 151 152 ?1 29 155 6731 0 157 158 152 -.352425 .0381 .004068577759541145 18 157
 6618 0 159 95 154 155 ?1 29 158 6732 0 95 160 155 .352425 .0333375 .00406857775
954103 18 95 6619 0 36 91 157 158 ?1 29 160 7027 0 130 161 158 .352425 .0381 -.5
01525 18 130 6970 0 162 126 163 160 ?1 29 161 7194 0 164 165 160 .36601857775954
05 .0333375 -.504873286437627 18 164 7081 0 166 167 0 161 ?1 29 165 7195 0 167 1
68 161 .3660185777595405 .0381 -.501525 18 167 7082 0 169 170 164 165 ?1 29 168
 7196 0 170 171 165 .3922213762595405 .0333375 -.504873286437627 18 170 7083 0 1
72 173 167 168 ?1 29 171 7197 0 173 174 168 .3660185777595405 .0381 -.5048732864
37627 18 173 7084 0 175 176 170 171 ?1 29 174 7198 0 176 177 171 .39222137625954
1 .0333375 -.00617671356237327 18 176 7085 0 178 179 173 174 ?1 29 177 7199 0 17
9 180 174 .3922213762595405 .0381 -.504873286437627 18 179 7086 0 181 182 176 17
7 ?1 29 180 7200 0 182 183 177 .366018577759541 .0333375 -.00617671356237325 18
 182 7087 0 184 185 179 180 ?1 29 183 7201 0 185 186 180 .392221376259541 .0381
 -.00617671356237327 18 185 7088 0 187 188 182 183 ?1 29 186 7202 0 188 189 183
 .366018577759541 .0333375 -.009525 18 188 7089 0 190 191 185 186 ?1 29 189 7203
 0 191 192 186 .366018577759541 .0381 -.00617671356237325 18 191 7090 0 193 194
 188 189 ?1 29 192 7204 0 194 195 189 .366018577759541 .0381 -.009525 18 194 709
1 0 196 163 191 192 ?1 29 195 7205 0 163 0 192 .3660185777595405 .0333375 -.5015
25 18 163 7092 0 26 130 194 195 ?1 17 26 0 25 197 23 163 198 199 0 200 -15 255 2
5 1477 0 201 202 0 17 197 0 25 203 26 164 204 205 0 206 -17 198 0 207 21 200 11
 26 199 0 0 +16 199 6932 0 ?198 208 209 210 0 0 1 17 200 0 207 198 169 163 211 2
12 0 204 -15 207 6993 0 198 213 0 17 169 0 207 200 21 167 214 215 0 211 -17 211
 0 216 217 204 167 200 212 0 218 +16 212 7052 0 ?211 219 205 220 0 0 1 17 204 0
 216 211 166 163 197 205 0 0 +15 216 7108 0 166 221 0 17 166 0 216 204 217 164 1
75 222 0 197 -16 205 7051 0 ?204 212 0 223 0 0 1 30 223 7168 0 205 220 224 0 +.3
66018577759541 .0333375 -160095007531283e-30 543108807663221e-30 -98607613152626
5e-46 1 30 220 7169 0 212 225 223 0 +.3660185777595405 .0381 -.501525 6123233995
73677e-31 1 -197215226305253e-45 30 224 7020 0 208 223 226 0 +.3580356881297705
 .0381 -.009525 1 0 0 16 208 6959 0 ?196 215 199 224 0 0 1 30 226 7018 0 215 224
 227 0 -.3580356881297705 .0381 -.501525 1 0 0 16 215 6946 0 ?214 228 208 226 0
 0 1 30 227 7016 0 209 226 210 0 +.3580356881297705 .0333375 -.009525 1 0 0 16 2
09 6918 0 ?190 199 229 227 0 0 1 30 210 7014 0 199 227 230 0 -.3580356881297705
 .0333375 -.501525 1 0 0 30 230 6714 0 231 210 232 0 --.36195 .0333375 .00406857
775954114 -1 -246519032881566e-46 1533669049074675e-31 16 231 6599 0 ?233 234 23
5 230 0 0 1 30 232 6713 0 235 230 236 0 --.36195 .0333375 .00406857775954114 -1
 -246519032881566e-46 1533669049074675e-31 16 235 6598 0 ?237 231 238 232 0 0 1
 30 236 6712 0 238 232 239 0 +-.352425 .0381 .004068577759541145 493038065763132
e-46 1 612323399573677e-31 16 238 6597 0 ?240 235 241 236 0 0 1 30 239 6710 0 24
1 236 242 0 +.3557732864376265 .0381 -.00782862374045897 -1533669049074675e-31 6
12323399573677e-31 -1 16 241 6595 0 ?243 238 244 239 0 0 1 30 242 6709 0 244 239
 245 0 +-.36195 .0381 .03027137625954115 1 493038065763132e-46 -1533669049074675
e-31 16 244 6594 0 ?246 241 247 242 0 0 1 30 245 6708 0 247 242 248 0 +-.3557732
86437627 .0381 -.00782862374045885 1533669049074675e-31 -612323399573677e-31 1 1
6 247 6593 0 ?249 244 250 245 0 0 1 30 248 6704 0 250 245 251 0 +-.36195 .0381 .
00406857775954114 1 246519032881566e-46 -1533669049074675e-31 16 250 6587 0 ?252
 247 253 248 0 0 1 30 251 6703 0 253 248 254 0 +-.355773286437627 .0381 .0040685
7775954114 493038065763132e-46 1 612323399573677e-31 16 253 6586 0 ?156 250 255
 251 0 0 1 30 254 6702 0 255 251 256 0 +-.355773286437627 .0381 .030271376259541
15 493038065763132e-46 1 612323399573677e-31 16 255 6585 0 ?150 253 257 254 0 0
 1 30 256 6701 0 257 254 258 0 --.355773286437627 .0333375 -.00782862374045885 -
1533669049074675e-31 612323399573677e-31 -1 16 257 6584 0 ?259 255 260 256 0 0 1
 30 258 6700 0 260 256 261 0 +.3557732864376265 .0381 .03027137625954105 4930380
65763132e-46 1 612323399573677e-31 16 260 6583 0 ?144 257 262 258 0 0 1 30 261 6
699 0 262 258 263 0 --.36195 .0333375 .03027137625954115 -1 -246519032881566e-46
 1533669049074675e-31 16 262 6582 0 ?264 260 265 261 0 0 1 30 263 6698 0 265 261
 266 0 +.3557732864376265 .0381 .00406857775954103 493038065763132e-46 1 6123233
99573677e-31 16 265 6581 0 ?138 262 267 263 0 0 1 30 266 6697 0 267 263 268 0 +.
3557732864376265 .0333375 -.00782862374045897 -1533669049074675e-31 612323399573
677e-31 -1 16 267 6580 0 ?269 265 270 266 0 0 1 30 268 6696 0 270 266 271 0 +-.3
6195 .0381 .00406857775954114 1 246519032881566e-46 -1533669049074675e-31 16 270
 6579 0 ?272 267 228 268 0 0 1 30 271 6695 0 228 268 273 0 +.352425 .0381 .00406
857775954103 493038065763132e-46 1 612323399573677e-31 16 228 6578 0 ?274 270 21
5 271 0 0 1 30 273 6547 0 275 271 276 0 +-.352425 .0381 -.003914311870229535 0 0
 1 16 275 6486 0 ?159 277 37 273 0 0 1 30 276 6545 0 277 273 278 0 -.352425 .038
1 -.003914311870229535 0 0 1 16 277 6473 0 ?39 279 275 276 0 0 1 30 278 6543 0 2
34 276 280 0 +-.352425 .0333375 -.003914311870229535 0 0 1 16 234 6445 0 ?153 37
 231 278 0 0 1 30 280 6541 0 37 278 281 0 -.352425 .0333375 -.003914311870229535
 0 0 1 16 37 6459 0 ?31 275 234 280 0 0 1 30 281 6240 0 282 280 283 0 +.352425 .
0381 -.515118577759541 0 1 -612323399573677e-31 16 282 6125 0 ?284 29 285 281 0
 0 1 30 283 6239 0 285 281 286 0 +-.36195 .0381 -.515118577759541 1 0 0 16 285 6
124 0 ?287 282 288 283 0 0 1 30 286 6238 0 288 283 289 0 +-.355773286437627 .038
1 -.503221376259541 0 612323399573677e-31 1 16 288 6123 0 ?290 285 291 286 0 0 1
 30 289 6237 0 291 286 292 0 +-.36195 .0381 -.541321376259541 -1 0 0 16 291 6122
 0 ?293 288 294 289 0 0 1 30 292 6236 0 294 289 295 0 +.3557732864376265 .0381 -
.503221376259541 0 -612323399573677e-31 -1 16 294 6121 0 ?296 291 297 292 0 0 1
 30 295 6235 0 297 292 298 0 +-.36195 .0381 -.515118577759541 1 0 0 16 297 6120
 0 ?299 294 300 295 0 0 1 30 298 6233 0 300 295 301 0 +.3557732864376265 .0381 -
.515118577759541 0 1 -612323399573677e-31 16 300 6116 0 ?120 297 302 298 0 0 1 3
0 301 6232 0 302 298 303 0 +-.36195 .0333375 -.515118577759541 1 0 0 16 302 6115
 0 ?304 300 305 301 0 0 1 30 303 6231 0 305 301 306 0 +.3557732864376265 .0381 -
.541321376259541 0 1 -612323399573677e-31 16 305 6114 0 ?115 302 307 303 0 0 1 3
0 306 6230 0 307 303 308 0 -.3557732864376265 .0333375 -.503221376259541 0 61232
3399573677e-31 1 16 307 6113 0 ?309 305 310 306 0 0 1 30 308 6229 0 310 306 311
 0 +-.355773286437627 .0381 -.541321376259541 0 1 -612323399573677e-31 16 310 61
12 0 ?109 307 312 308 0 0 1 30 311 6228 0 312 308 313 0 --.36195 .0333375 -.5413
21376259541 1 0 0 16 312 6111 0 ?314 310 315 311 0 0 1 30 313 6227 0 315 311 316
 0 +-.355773286437627 .0381 -.515118577759541 0 1 -612323399573677e-31 16 315 61
10 0 ?103 312 317 313 0 0 1 30 316 6226 0 317 313 318 0 +-.355773286437627 .0333
375 -.503221376259541 0 612323399573677e-31 1 16 317 6109 0 ?319 315 320 316 0 0
 1 30 318 6225 0 320 316 321 0 +-.352425 .0381 -.515118577759541 0 1 -6123233995
73677e-31 16 320 6108 0 ?322 317 279 318 0 0 1 30 321 6224 0 279 318 323 0 +-.36
195 .0333375 -.515118577759541 1 0 0 16 279 6107 0 ?324 320 277 321 0 0 1 30 323
 6076 0 325 321 326 0 -.352425 .0381 -.507135688129771 0 0 1 16 325 6015 0 ?123
 327 328 323 0 0 1 30 326 6074 0 327 323 329 0 +-.352425 .0381 -.507135688129771
 0 0 1 16 327 6002 0 ?330 331 325 326 0 0 1 30 329 6072 0 29 326 332 0 -.352425
 .0333375 -.507135688129771 0 0 1 16 29 5974 0 ?28 328 282 329 0 0 1 30 332 6070
 0 328 329 333 0 +-.352425 .0333375 -.507135688129771 0 0 1 16 328 5988 0 ?334 3
25 29 332 0 0 1 30 333 5773 0 335 332 336 0 --.366018577759541 .0333375 53282717
4614568e-31 -2172435230652885e-31 0 -1 16 335 5658 0 ?337 338 339 333 0 0 1 30 3
36 5771 0 339 333 340 0 +-.366018577759541 .0381 -.501525 -612323399573677e-31 1
 0 16 339 5656 0 ?341 335 342 336 0 0 1 30 340 5770 0 342 336 343 0 +-.354121376
259541 .0381 -.00617671356237304 1 612323399573677e-31 -2172435230652885e-31 16
 342 5655 0 ?344 339 345 340 0 0 1 30 343 5769 0 345 340 346 0 +-.39222137625954
1 .0381 589751057217667e-31 2172435230652885e-31 493038065763132e-46 1 16 345 56
54 0 ?347 342 348 343 0 0 1 30 346 5768 0 348 343 349 0 +-.354121376259541 .0381
 -.504873286437627 -1 -612323399573677e-31 2172435230652885e-31 16 348 5653 0 ?3
50 345 351 346 0 0 1 30 349 5767 0 351 346 352 0 +-.366018577759541 .0381 532827
174614568e-31 -2172435230652885e-31 0 -1 16 351 5652 0 ?353 348 354 349 0 0 1 30
 352 5764 0 354 349 355 0 +-.366018577759541 .0381 -.504873286437627 -6123233995
73677e-31 1 0 16 354 5647 0 ?82 351 356 352 0 0 1 30 355 5763 0 356 352 357 0 +-
.366018577759541 .0333375 532827174614568e-31 -2172435230652885e-31 0 -1 16 356
 5646 0 ?358 354 359 355 0 0 1 30 357 5762 0 359 355 360 0 +-.392221376259541 .0
381 -.504873286437627 -612323399573677e-31 1 0 16 359 5645 0 ?76 356 361 357 0 0
 1 30 360 5761 0 361 357 362 0 --.354121376259541 .0333375 -.504873286437627 1 6
12323399573677e-31 -2172435230652885e-31 16 361 5644 0 ?363 359 364 360 0 0 1 30
 362 5760 0 364 360 365 0 +-.392221376259541 .0381 -.00617671356237304 -61232339
9573677e-31 1 0 16 364 5643 0 ?70 361 366 362 0 0 1 30 365 5759 0 366 362 367 0
 --.392221376259541 .0333375 589751057217667e-31 -2172435230652885e-31 0 -1 16 3
66 5642 0 ?368 364 369 365 0 0 1 30 367 5758 0 369 365 370 0 +-.366018577759541
 .0381 -.00617671356237304 -612323399573677e-31 1 0 16 369 5641 0 ?64 366 371 36
7 0 0 1 30 370 5757 0 371 367 372 0 +-.354121376259541 .0333375 -.00617671356237
304 1 612323399573677e-31 -2172435230652885e-31 16 371 5640 0 ?373 369 374 370 0
 0 1 30 372 5756 0 374 370 375 0 +-.366018577759541 .0381 532827174614568e-31 21
72435230652885e-31 0 1 16 374 5639 0 ?376 371 331 372 0 0 1 30 375 5755 0 331 37
2 377 0 +-.366018577759541 .0381 -.00952499999999988 -612323399573677e-31 1 0 16
 331 5638 0 ?378 374 327 375 0 0 1 30 377 5607 0 379 375 380 0 --.35803568812977
05 .0381 -.501525 1 0 0 16 379 5546 0 ?85 381 382 377 0 0 1 30 380 5605 0 381 37
7 383 0 +-.3580356881297705 .0381 -.00952499999999989 1 0 0 16 381 5533 0 ?47 38
4 379 380 0 0 1 30 383 5603 0 338 380 385 0 --.3580356881297705 .0333375 -.50152
5 1 0 0 16 338 5505 0 ?79 382 335 383 0 0 1 30 385 5601 0 382 383 386 0 +-.35803
56881297705 .0333375 -.00952499999999989 1 0 0 16 382 5519 0 ?44 379 338 385 0 0
 1 30 386 5877 0 384 385 387 0 +-.352425 .0381 -.501525 -604518590954904e-29 1 0
 16 384 5868 0 ?388 389 381 386 0 0 1 30 387 6316 0 389 386 18 0 +-.352425 .0381
 -.009525 0 1 689192528927931e-29 16 389 6307 0 ?390 22 384 387 0 0 1 30 18 6789
 0 22 387 7 0 +.352425 .0381 -.009525 637105119414698e-29 1 0 16 22 6780 0 ?34 1
0 389 18 0 0 1 17 34 0 33 132 31 32 38 22 0 391 +15 33 6520 0 31 392 0 17 132 0
 33 35 34 129 39 277 0 274 -17 38 0 393 190 391 24 34 22 0 394 -17 391 0 393 38
 395 32 196 208 0 0 -15 393 6983 0 38 396 0 17 395 0 393 391 190 194 397 398 0 3
99 +17 196 0 400 401 39 194 391 208 0 395 +15 400 617 0 214 15 0 17 401 0 400 40
2 196 191 399 403 0 404 -17 39 0 400 196 405 32 132 277 0 34 +17 405 0 400 39 24
3 129 272 270 0 0 -17 243 0 400 405 246 136 406 241 0 272 +17 272 0 407 128 274
 136 405 270 0 0 +15 407 6635 0 128 408 0 17 128 0 407 409 272 126 138 265 0 237
 -17 274 0 407 272 409 129 35 228 0 405 +17 409 0 407 274 128 95 237 235 0 0 -17
 35 0 33 31 132 95 274 228 0 409 -17 237 0 25 410 36 126 409 235 0 269 +17 410 0
 25 411 237 133 269 267 0 264 -17 36 0 25 237 394 95 31 37 0 35 -17 269 0 412 13
8 135 126 410 267 0 0 +15 412 6640 0 135 413 0 17 138 0 412 406 269 136 128 265
 0 243 +17 135 0 412 269 406 133 144 260 0 410 -17 406 0 412 135 138 142 243 241
 0 0 -17 144 0 414 415 264 142 135 260 0 246 +15 414 6646 0 141 416 0 17 415 0 4
14 141 144 148 246 244 0 0 -17 264 0 414 144 141 133 411 262 0 0 +17 246 0 400 2
43 249 142 415 244 0 406 +17 249 0 400 246 417 148 418 247 0 415 +17 417 0 400 2
49 159 154 252 250 0 418 -17 418 0 419 147 150 154 249 247 0 0 -15 419 6651 0 14
7 420 0 17 147 0 419 259 418 145 156 253 0 421 -17 150 0 419 418 259 148 141 255
 0 249 +17 259 0 419 150 147 139 421 257 0 0 +17 141 0 414 264 415 139 150 255 0
 411 -17 411 0 25 421 410 139 264 262 0 259 -17 421 0 25 233 411 145 259 257 0 4
22 -17 233 0 25 201 421 151 422 231 0 0 +17 422 0 423 156 424 145 233 231 0 0 -1
5 423 6656 0 424 425 0 17 156 0 423 252 422 154 147 253 0 417 +17 424 0 423 422
 252 151 240 238 0 233 -17 252 0 423 424 156 157 417 250 0 0 +17 240 0 426 427 1
53 157 424 238 0 252 +15 426 6510 0 428 429 0 17 427 0 426 428 240 45 159 275 0
 0 -17 153 0 426 240 428 151 201 234 0 424 +17 428 0 426 153 427 40 390 389 0 20
1 -17 201 0 25 87 233 40 153 234 0 0 -17 87 0 25 337 201 51 44 382 0 430 -17 337
 0 25 431 87 52 432 335 0 373 +17 44 0 433 390 430 40 87 382 0 428 +17 430 0 433
 44 58 51 378 331 0 432 -15 433 5580 0 44 434 0 17 58 0 433 430 390 55 47 381 0
 378 -17 378 0 435 376 432 55 430 331 0 436 +17 432 0 435 378 54 51 337 335 0 0
 -15 435 5695 0 54 437 0 17 54 0 435 432 376 52 64 369 0 337 -17 376 0 435 54 37
8 62 436 374 0 0 +17 64 0 438 439 373 62 54 369 0 344 +15 438 5700 0 61 440 0 17
 439 0 438 61 64 68 344 342 0 0 -17 373 0 438 64 61 52 431 371 0 0 +17 344 0 400
 436 347 62 439 342 0 376 +17 436 0 400 47 344 55 376 374 0 0 -17 347 0 400 344
 350 68 441 345 0 439 +17 350 0 400 347 353 74 442 348 0 441 +17 441 0 443 67 70
 74 347 345 0 0 -15 443 5706 0 67 444 0 17 67 0 443 368 441 65 76 359 0 445 -17
 70 0 443 441 368 68 61 364 0 347 +17 368 0 443 70 67 59 445 366 0 0 +17 61 0 43
8 373 439 59 70 364 0 431 -17 431 0 25 445 337 59 373 371 0 368 -17 445 0 25 446
 431 65 368 366 0 363 -17 446 0 25 447 445 71 363 361 0 358 -17 363 0 448 76 73
 65 446 361 0 0 +15 448 5711 0 73 449 0 17 76 0 448 442 363 74 67 359 0 350 +17
 73 0 448 363 442 71 82 354 0 446 -17 442 0 448 73 76 80 350 348 0 0 -17 82 0 45
0 451 358 80 73 354 0 353 +15 450 5716 0 452 453 0 17 451 0 450 452 82 83 353 35
1 0 0 -17 358 0 450 82 452 71 447 356 0 0 +17 353 0 400 350 85 80 451 351 0 442
 +17 85 0 400 353 330 83 89 379 0 341 +17 330 0 400 85 287 56 97 327 0 0 +17 89
 0 454 455 341 56 85 379 0 388 -17 341 0 454 89 79 83 452 339 0 451 +15 454 5570
 0 455 456 0 17 79 0 454 341 455 77 50 338 0 452 +17 452 0 450 358 451 77 341 33
9 0 447 -17 447 0 25 50 446 77 358 356 0 0 -17 50 0 25 125 447 48 79 338 0 455 -
17 125 0 25 457 50 90 334 328 0 458 -17 455 0 454 79 89 48 388 384 0 334 -17 388
 0 459 97 334 56 455 384 0 330 +17 334 0 459 388 458 48 125 328 0 0 +15 459 6049
 0 334 460 0 17 458 0 459 334 97 90 322 320 0 324 -17 97 0 459 458 388 94 330 32
7 0 322 -17 322 0 461 462 324 94 458 320 0 287 +17 324 0 461 322 93 90 457 279 0
 0 +15 461 6164 0 93 463 0 17 93 0 461 324 462 91 103 315 0 457 -17 457 0 25 464
 125 91 324 279 0 319 -17 464 0 25 465 457 98 319 317 0 314 -17 319 0 466 103 10
0 91 464 317 0 0 +15 466 6169 0 100 467 0 17 103 0 466 468 319 101 93 315 0 290
 +17 100 0 466 319 468 98 109 310 0 464 -17 468 0 466 100 103 107 290 288 0 0 -1
7 109 0 469 470 314 107 100 310 0 293 +15 469 6175 0 106 471 0 17 470 0 469 106
 109 113 293 291 0 0 -17 314 0 469 109 106 98 465 312 0 0 +17 293 0 400 290 296
 107 470 291 0 468 +17 290 0 400 287 293 101 468 288 0 462 +17 296 0 400 293 299
 113 472 294 0 470 +17 299 0 400 296 123 118 473 297 0 472 +17 472 0 474 112 115
 118 296 294 0 0 -15 474 6180 0 112 475 0 17 112 0 474 309 472 110 120 300 0 476
 -17 115 0 474 472 309 113 106 305 0 296 +17 309 0 474 115 112 104 476 307 0 0 +
17 106 0 469 314 470 104 115 305 0 465 -17 465 0 25 476 464 104 314 312 0 309 -1
7 476 0 25 27 465 110 309 307 0 304 -17 27 0 25 23 476 116 304 302 0 0 -17 304 0
 477 120 478 110 27 302 0 0 +15 477 6185 0 478 479 0 17 120 0 477 473 304 118 11
2 300 0 299 +17 478 0 477 304 473 116 284 282 0 27 -17 473 0 477 478 120 121 299
 297 0 0 -17 284 0 480 162 28 121 478 282 0 473 +15 480 6039 0 30 481 0 17 162 0
 480 30 284 130 123 325 0 21 -17 28 0 480 284 30 116 23 29 0 478 +17 30 0 480 28
 162 11 21 10 0 198 -17 21 0 207 169 198 130 30 10 0 214 +17 214 0 400 123 218 1
30 169 215 0 0 +17 123 0 400 299 214 121 162 325 0 284 +17 218 0 400 214 482 167
 217 483 0 0 +17 482 0 400 218 484 173 485 486 0 217 +17 217 0 216 166 211 173 2
18 483 0 0 -16 483 7068 0 ?218 398 486 487 0 0 1 16 398 7070 0 ?395 229 483 488
 0 0 1 16 486 7067 0 ?482 483 489 490 0 0 1 30 487 7183 0 483 488 490 0 +.366018
577759541 .0381 -160095007531283e-30 543108807663221e-30 -986076131526265e-46 1
 30 488 7185 0 398 491 487 0 +.366018577759541 .0381 -.009525 612323399573677e-3
1 1 -197215226305253e-45 30 490 7182 0 486 487 492 0 +.3541213762595405 .0381 -.
504873286437627 -1 612323399573677e-31 543108807663221e-30 30 492 7181 0 489 490
 493 0 +.392221376259541 .0381 -1743259781820575e-31 -543108807663221e-30 986076
131526265e-46 -1 16 489 7066 0 ?484 486 494 492 0 0 1 30 493 7180 0 494 492 495
 0 +.354121376259541 .0381 -.00617671356237325 1 -612323399573677e-31 -543108807
663221e-30 16 494 7065 0 ?402 489 403 493 0 0 1 30 495 7177 0 403 493 496 0 +.36
6018577759541 .0381 -160095007531283e-30 -543108807663221e-30 986076131526265e-4
6 -1 16 403 7060 0 ?399 494 497 495 0 0 1 30 496 7176 0 497 495 498 0 +.36601857
7759541 .0381 -.00617671356237325 612323399573677e-31 1 -197215226305253e-45 16
 497 7059 0 ?193 403 499 496 0 0 1 30 498 7175 0 499 496 500 0 +.392221376259541
 .0381 -.00617671356237327 612323399573677e-31 1 -197215226305253e-45 16 499 705
8 0 ?187 497 501 498 0 0 1 30 500 7174 0 501 498 502 0 -.354121376259541 .033337
5 -.00617671356237324 -1 612323399573677e-31 543108807663221e-30 16 501 7057 0 ?
503 499 504 500 0 0 1 30 502 7173 0 504 500 505 0 +.3922213762595405 .0381 -.504
873286437627 612323399573677e-31 1 -197215226305253e-45 16 504 7056 0 ?181 501 5
06 502 0 0 1 30 505 7172 0 506 502 507 0 -.392221376259541 .0333375 -17432597818
20575e-31 543108807663221e-30 -986076131526265e-46 1 16 506 7055 0 ?508 504 222
 505 0 0 1 30 507 7171 0 222 505 225 0 +.3660185777595405 .0381 -.50487328643762
7 612323399573677e-31 1 -197215226305253e-45 16 222 7054 0 ?175 506 219 507 0 0
 1 30 225 7170 0 219 507 220 0 +.3541213762595405 .0333375 -.504873286437627 -1
 612323399573677e-31 543108807663221e-30 16 219 7053 0 ?206 222 212 225 0 0 1 17
 206 0 509 175 172 164 203 219 0 0 +15 509 7113 0 172 510 0 17 175 0 509 485 206
 173 166 222 0 482 +17 172 0 509 206 485 170 181 504 0 203 -17 203 0 25 511 197
 170 206 219 0 508 -17 511 0 25 512 203 176 508 506 0 503 -17 508 0 513 181 178
 170 511 506 0 0 +15 513 7119 0 178 514 0 17 181 0 513 515 508 179 172 504 0 484
 +17 178 0 513 508 515 176 187 499 0 511 -17 515 0 513 178 181 185 484 489 0 0 -
17 187 0 516 404 503 185 178 499 0 402 +15 516 7124 0 184 517 0 17 404 0 516 184
 187 191 402 494 0 0 -17 503 0 516 187 184 176 512 501 0 0 +17 402 0 400 484 401
 185 404 494 0 515 +17 484 0 400 482 402 179 515 489 0 485 +17 485 0 509 172 175
 179 482 486 0 0 -17 184 0 516 503 404 182 193 497 0 512 -17 512 0 25 518 511 18
2 503 501 0 519 -17 518 0 25 394 512 188 519 229 0 0 +17 519 0 520 193 397 182 5
18 229 0 0 -15 520 7129 0 397 521 0 17 193 0 520 399 519 191 184 497 0 401 +17 3
97 0 520 519 399 188 395 398 0 518 -16 229 7072 0 ?518 209 398 491 0 0 1 30 491
 7187 0 229 0 488 0 -.366018577759541 .0333375 -160095007531283e-30 543108807663
221e-30 -986076131526265e-46 1 17 399 0 520 397 193 194 401 403 0 0 +14 255 521
 7125 522 ?0 517 520 5 523 +0 0 0 517 20 81 1 522 7468 524 521 525 0 0 526 527 1
4 517 7120 526 ?521 514 516 5 528 +0 0 521 514 20 50 523 7161 0 521 528 529 0 +.
366018577759541 .0381 -160095007531283e-30 -1 612323399573677e-31 54310880766322
1e-30 -543108807663221e-30 986076131526265e-46 -1 13 20 1460 0 0 0 0 0 0 9 15 14
 15 618 530 ?202 0 400 5 6 -0 0 202 0 20 81 1 530 7473 524 15 531 0 526 532 533
 14 202 1472 532 ?456 15 25 5 17 +0 0 456 15 20 81 1 532 7476 524 202 534 0 530
 535 536 14 456 5567 535 ?434 202 454 5 537 +0 0 434 202 20 50 17 1648 0 202 538
 6 0 +0 .0333375 0 0 -1 0 0 0 -1 50 538 5591 0 434 537 17 0 +-.3580356881297705
 .03571875 -.00952499999999989 0 0 1 1 0 0 14 434 5577 539 ?437 456 433 5 538 +0
 0 437 456 20 50 537 5593 0 456 540 538 0 --.3580356881297705 .03571875 -.501525
 0 0 1 1 0 0 50 540 5748 0 453 541 537 0 --.366018577759541 .0381 53282717461456
8e-31 -1 -612323399573677e-31 2172435230652885e-31 -2172435230652885e-31 0 -1 14
 453 5712 542 ?481 449 450 5 540 +0 0 481 449 20 50 541 5749 0 449 543 540 0 --.
354121376259541 .0381 -.504873286437627 2172435230652885e-31 0 1 -1 -61232339957
3677e-31 2172435230652885e-31 14 449 5707 544 ?453 444 448 5 541 +0 0 453 444 20
 50 543 5750 0 444 545 541 0 --.392221376259541 .0381 589751057217667e-31 1 6123
23399573677e-31 -2172435230652885e-31 2172435230652885e-31 493038065763132e-46 1
 14 444 5701 546 ?449 440 443 5 543 +0 0 449 440 20 50 545 5751 0 440 547 543 0
 --.354121376259541 .0381 -.00617671356237304 -2172435230652885e-31 0 -1 1 61232
3399573677e-31 -2172435230652885e-31 14 440 5696 548 ?444 437 438 5 545 +0 0 444
 437 20 50 547 5752 0 437 549 545 0 +-.366018577759541 .0381 532827174614568e-31
 1 612323399573677e-31 -2172435230652885e-31 2172435230652885e-31 0 1 14 437 569
1 550 ?440 434 435 5 547 +0 0 440 434 20 50 549 6060 0 460 551 547 0 +-.352425 .
03571875 -.507135688129771 -1 0 0 0 0 1 14 460 6046 552 ?463 481 459 5 549 +0 0
 463 481 20 50 551 6062 0 481 553 549 0 -.352425 .03571875 -.507135688129771 -1
 0 0 0 0 1 14 481 6036 554 ?460 453 480 5 551 +0 0 460 453 20 50 553 6217 0 479
 555 551 0 --.36195 .0381 -.515118577759541 0 -612323399573677e-31 -1 1 0 0 14 4
79 6181 556 ?429 475 477 5 553 +0 0 429 475 20 50 555 6218 0 475 557 553 0 -.355
7732864376265 .0381 -.503221376259541 -1 0 0 0 -612323399573677e-31 -1 14 475 61
76 558 ?479 471 474 5 555 +0 0 479 471 20 50 557 6219 0 471 559 555 0 --.36195 .
0381 -.541321376259541 0 612323399573677e-31 1 -1 0 0 14 471 6170 560 ?475 467 4
69 5 557 +0 0 475 467 20 50 559 6220 0 467 561 557 0 --.355773286437627 .0381 -.
503221376259541 1 0 0 0 612323399573677e-31 1 14 467 6165 562 ?471 463 466 5 559
 +0 0 471 463 20 50 561 6221 0 463 563 559 0 --.36195 .0381 -.515118577759541 0
 -612323399573677e-31 -1 1 0 0 14 463 6160 564 ?467 460 461 5 561 +0 0 467 460 2
0 50 563 6531 0 392 565 561 0 -.352425 .03571875 -.003914311870229535 -1 0 0 0 0
 1 14 392 6517 566 ?408 429 33 5 563 +0 0 408 429 20 50 565 6533 0 429 567 563 0
 +-.352425 .03571875 -.003914311870229535 -1 0 0 0 0 1 14 429 6507 568 ?392 479
 426 5 565 +0 0 392 479 20 50 567 6688 0 425 569 565 0 +-.36195 .0381 .004068577
75954114 -1533669049074675e-31 612323399573677e-31 -1 1 246519032881566e-46 -153
3669049074675e-31 14 425 6652 570 ?396 420 423 5 567 +0 0 396 420 20 50 569 6689
 0 420 571 567 0 --.355773286437627 .0381 -.00782862374045885 1 246519032881566e
-46 -1533669049074675e-31 1533669049074675e-31 -612323399573677e-31 1 14 420 664
7 572 ?425 416 419 5 569 +0 0 425 416 20 50 571 6690 0 416 573 569 0 --.36195 .0
381 .03027137625954115 -1533669049074675e-31 612323399573677e-31 -1 1 4930380657
63132e-46 -1533669049074675e-31 14 416 6641 574 ?420 413 414 5 571 +0 0 420 413
 20 50 573 6691 0 413 575 571 0 -.3557732864376265 .0381 -.00782862374045897 -1
 -246519032881566e-46 1533669049074675e-31 -1533669049074675e-31 612323399573677
e-31 -1 14 413 6636 576 ?416 408 412 5 573 +0 0 416 408 20 50 575 6692 0 408 577
 573 0 +-.36195 .0381 .00406857775954114 -1533669049074675e-31 612323399573677e-
31 -1 1 246519032881566e-46 -1533669049074675e-31 14 408 6631 578 ?413 392 407 5
 575 +0 0 413 392 20 50 577 7004 0 213 529 575 0 -.3580356881297705 .03571875 -.
501525 0 0 1 1 0 0 14 213 6990 579 ?221 396 207 5 577 +0 0 221 396 20 50 529 700
6 0 396 523 577 0 +.3580356881297705 .03571875 -.009525 0 0 1 1 0 0 14 396 6980
 580 ?213 425 393 5 529 +0 0 213 425 20 81 1 580 7530 524 396 581 0 579 582 583
 80 255 1 524 584 585 9000 1 1 1 1 1 1 1 1 0 FFFFTFTFFFFFFF1 81 1 581 7328 586 3
96 0 580 587 588 589 81 1 579 7527 524 213 588 0 578 580 590 81 1 582 7532 524 2
21 591 0 580 592 593 82 255 1 583 1113915609 14 221 7104 582 ?510 213 216 5 594
 +0 0 510 213 20 81 1 591 7330 586 221 0 582 588 595 596 81 1 592 7534 524 510 5
95 0 582 597 598 82 1 593 -352190247 14 510 7109 592 ?514 221 509 5 599 +0 0 514
 221 20 81 1 595 7331 586 510 0 592 591 600 601 81 1 597 7536 524 514 600 0 592
 0 602 82 1 598 -352321319 14 514 7114 597 ?517 510 513 5 603 +0 0 517 510 20 81
 1 600 7332 586 514 0 597 595 604 605 82 1 602 -352452391 80 1 586 0 606 8001 0
 0 0 0 3 5 0 0 0 FFFFTFTFFFFFFF2 81 1 604 7333 586 517 0 526 600 525 607 83 255
 3 605 .894117647058824 .913725490196078 .929411764705882 81 1 526 7470 524 517
 604 0 522 530 608 81 1 525 7334 586 521 0 522 604 0 609 83 3 607 .8941176470588
24 .913725490196078 .929411764705882 83 3 609 .894117647058824 .913725490196078
 .929411764705882 82 1 608 -352583463 79 255 15 606 SDL/TYSA_COLOUR50 603 7163 0
 514 599 528 0 -.392221376259541 .0381 -1743259781820575e-31 -1 612323399573677e
-31 543108807663221e-30 -543108807663221e-30 986076131526265e-46 -1 50 599 7164
 0 510 594 603 0 -.3541213762595405 .0381 -.504873286437627 543108807663221e-30
 -986076131526265e-46 1 -1 612323399573677e-31 543108807663221e-30 50 528 7162 0
 517 603 523 0 -.354121376259541 .0381 -.00617671356237325 -543108807663221e-30
 986076131526265e-46 -1 1 -612323399573677e-31 -543108807663221e-30 50 594 7165
 0 221 0 599 0 -.366018577759541 .0381 -160095007531283e-30 1 -612323399573677e-
31 -543108807663221e-30 543108807663221e-30 -986076131526265e-46 1 83 3 601 .894
117647058824 .913725490196078 .929411764705882 81 1 588 7329 586 213 0 579 581 5
91 610 83 3 596 .894117647058824 .913725490196078 .929411764705882 83 3 610 .894
117647058824 .913725490196078 .929411764705882 81 1 578 7524 524 408 611 0 576 5
79 612 82 1 590 1112932569 81 1 611 7323 586 408 0 578 613 614 615 81 1 576 7522
 524 413 614 0 574 578 616 82 1 612 -350486311 81 1 614 7324 586 413 0 576 611 6
17 618 81 1 574 7520 524 416 617 0 572 576 619 82 1 616 -350617383 81 1 617 7325
 586 416 0 574 614 620 621 81 1 572 7518 524 420 620 0 570 574 622 82 1 619 -350
748455 81 1 620 7326 586 420 0 572 617 587 623 81 1 570 7516 524 425 587 0 568 5
72 624 82 1 622 -350879527 81 1 587 7327 586 425 0 570 620 581 625 81 1 568 7514
 524 429 626 0 566 570 627 82 1 624 -351010599 81 1 626 7321 586 429 0 568 628 6
13 629 81 1 566 7511 524 392 613 0 564 568 630 82 1 627 1029767385 81 1 613 7322
 586 392 0 566 626 611 631 81 1 564 7508 524 463 632 0 562 566 633 82 1 630 1028
784345 81 1 632 7316 586 463 0 564 634 635 636 81 1 562 7506 524 467 635 0 560 5
64 637 82 1 633 -344391463 81 1 635 7317 586 467 0 562 632 638 639 81 1 560 7504
 524 471 638 0 558 562 640 82 1 637 -344194855 81 1 638 7318 586 471 0 560 635 6
41 642 81 1 558 7502 524 475 641 0 556 560 643 82 1 640 -343998247 81 1 641 7319
 586 475 0 558 638 628 644 81 1 556 7500 524 479 628 0 554 558 645 82 1 643 -354
287399 81 1 628 7320 586 479 0 556 641 626 646 81 1 554 7498 524 481 647 0 552 5
56 648 82 1 645 -354484007 81 1 647 7314 586 481 0 554 649 634 650 81 1 552 7495
 524 460 634 0 550 554 651 82 1 648 945750233 81 1 634 7315 586 460 0 552 647 63
2 652 81 1 550 7492 524 437 653 0 548 552 654 82 1 651 944767193 81 1 653 7309 5
86 437 0 550 655 656 657 81 1 548 7490 524 440 656 0 546 550 658 82 1 654 -34786
4871 81 1 656 7310 586 440 0 548 653 659 660 81 1 546 7488 524 444 659 0 544 548
 661 82 1 658 -347668263 81 1 659 7311 586 444 0 546 656 662 663 81 1 544 7486 5
24 449 662 0 542 546 664 82 1 661 -347471655 81 1 662 7312 586 449 0 544 659 649
 665 81 1 542 7484 524 453 649 0 539 544 666 82 1 664 -347275047 81 1 649 7313 5
86 453 0 542 662 647 667 81 1 539 7482 524 434 655 0 535 542 668 82 1 666 -34707
8439 81 1 655 7308 586 434 0 539 669 653 670 81 1 535 7479 524 456 669 0 532 539
 671 82 1 668 860750041 81 1 669 7307 586 456 0 535 534 655 672 82 1 671 8617330
81 81 1 534 7306 586 202 0 532 531 669 673 83 3 672 .894117647058824 .9137254901
96078 .929411764705882 81 1 531 7305 586 15 0 530 0 534 674 83 3 673 .8941176470
58824 .913725490196078 .929411764705882 83 3 674 .894117647058824 .9137254901960
78 .929411764705882 83 3 670 .894117647058824 .913725490196078 .929411764705882
 83 3 667 .894117647058824 .913725490196078 .929411764705882 83 3 665 .894117647
058824 .913725490196078 .929411764705882 83 3 663 .894117647058824 .913725490196
078 .929411764705882 83 3 660 .894117647058824 .913725490196078 .929411764705882
 83 3 657 .894117647058824 .913725490196078 .929411764705882 83 3 652 .894117647
058824 .913725490196078 .929411764705882 83 3 650 .894117647058824 .913725490196
078 .929411764705882 83 3 646 .894117647058824 .913725490196078 .929411764705882
 83 3 644 .894117647058824 .913725490196078 .929411764705882 83 3 642 .894117647
058824 .913725490196078 .929411764705882 83 3 639 .894117647058824 .913725490196
078 .929411764705882 83 3 636 .894117647058824 .913725490196078 .929411764705882
 83 3 631 .894117647058824 .913725490196078 .929411764705882 83 3 629 .894117647
058824 .913725490196078 .929411764705882 83 3 625 .894117647058824 .913725490196
078 .929411764705882 83 3 623 .894117647058824 .913725490196078 .929411764705882
 83 3 621 .894117647058824 .913725490196078 .929411764705882 83 3 618 .894117647
058824 .913725490196078 .929411764705882 83 3 615 .894117647058824 .913725490196
078 .929411764705882 83 3 589 .894117647058824 .913725490196078 .929411764705882
 79 14 585 SWEntUnchanged82 1 536 -353959719 82 1 533 -354090791 82 1 527 -35271
4535 17 394 0 25 36 518 24 190 209 0 0 -17 190 0 393 395 38 188 394 209 0 397 +1
7 287 0 400 330 290 94 462 285 0 0 +17 462 0 461 93 322 101 287 285 0 0 -17 47 0
 400 159 436 45 58 381 0 390 +17 159 0 400 417 47 157 427 275 0 240 +17 390 0 43
3 58 44 45 428 389 0 427 +19 16 1463 0 1 0 9 5 S74 4 CI16 index_map_offset0 0 1
 dCCZ20 14 3 0 0 597 2 525 0 0 0 0 0 0 0 0 0 0 0 0 0 0 0 0 0 80 2 12 675 676 800
4 0 0 0 0 3 5 0 0 0 FFTFFFFFFFFFFF2 3 83 1 13 27e2 79 16 676 SDL/TYSA_DENSITY1 0
 
