**ABCDEFGHIJKLMNOPQRSTUVWXYZabcdefghijklmnopqrstuvwxyz**************************
**PARASOLID !"#$%&'()*+,-./:;<=>?@[\]^_`{|}~0123456789**************************
**PART1;
MC=AMD64;
MC_MODEL=Intel64 Family 6 Model 58 Stepping 9, GenuineIntel;
MC_ID=unknown;
OS=Windows_NT;
OS_RELEASE=unknown;
FRU=Parasolid Version 24.1, build 257,  2-12-2013;
APPL=SolidWorks 2013-2013086;
SITE=;
USER=unknown;
FORMAT=text;
GUISE=transmit;
KEY=Final Base-Bottom V4;
FILE=Final Base-Bottom V4.x_t;
DATE=Sun Mar 09 11:50:48 2014;
**PART2;
SCH=SCH_2401257_20000;
USFLD_SIZE=0;
**PART3;
**END_OF_HEADER*****************************************************************
T51 : TRANSMIT FILE created by modeller version 240125723 SCH_2401257_20000_1300
6189 0 12 27 CCCCCCCCCCCCCCCCCCCCCCCA16 index_map_offset0 0 1 dA9 index_map82 0
 A17 node_id_index_map82 0 A20 schema_embedding_map82 0 Z1 564 0 2 0 0 0 0 1e3 1
e-8 0 3 0 1 0 1 1 4 5 6 7 8 9 10 0 0 0 0 70 11 CI9 list_type0 0 1 uI10 notransmi
t0 0 1 lCCCDCCDI12 finger_index0 0 1 dI12 finger_block1012 0 CZ2 0 4 T1 0 0 2 20
 1 11 11 13 255 4 94 0 1 0 12 0 0 13 0 50 255 5 93 0 12 14 0 0 +.3571875 .00635
 .250825 -1 0 0 0 0 1 30 255 6 89 0 9 15 0 0 +.3571875 .00635 -.250825 0 -1 0 29
 255 7 70 0 16 17 0 .3571875 0 .250825 19 255 8 28 0 1 13 0 18 V16 255 9 77 0 ?1
9 0 20 6 0 0 1 18 255 10 25 0 21 0 22 23 ?1 17 255 21 0 24 25 26 10 27 28 0 29 +
18 22 22 0 26 10 30 31 ?1 29 23 27 0 10 31 32 .3571875 .00635 .250825 29 31 24 0
 22 33 23 -.3571875 .00635 .250825 29 32 73 0 34 23 35 .3571875 0 -.250825 18 34
 64 0 36 37 0 32 ?1 29 35 72 0 37 32 17 -.3571875 0 -.250825 18 37 63 0 38 39 34
 35 ?1 29 17 71 0 39 35 7 -.3571875 0 .250825 18 39 62 0 40 16 37 17 ?1 17 40 0
 41 42 43 39 44 45 0 46 +18 16 61 0 47 48 39 7 ?1 17 47 0 49 29 46 16 50 51 0 52
 +18 48 16 0 53 30 16 54 ?1 17 53 0 55 19 56 48 57 58 0 25 -18 30 19 0 57 22 48
 33 ?1 29 54 18 0 48 0 33 .3571875 .00635 -.250825 29 33 21 0 30 54 31 -.3571875
 .00635 -.250825 17 57 0 24 26 25 30 53 58 0 56 +15 255 24 3 0 25 59 0 17 26 0 2
4 21 57 22 60 61 0 42 +17 25 0 24 57 21 48 62 63 0 64 +16 58 7 0 ?57 61 63 65 0
 0 1 17 56 0 55 53 38 30 43 20 0 60 -15 55 82 0 38 66 0 17 38 0 55 56 19 37 36 6
7 0 43 +17 43 0 41 40 60 37 56 20 0 44 +16 20 76 0 ?43 9 68 15 0 0 1 17 60 0 41
 43 42 30 26 61 0 0 -15 41 80 0 40 69 0 17 42 0 41 60 40 22 46 68 0 27 -16 61 10
 0 ?26 28 58 70 0 0 1 16 28 13 0 ?21 71 61 72 0 0 1 30 70 11 0 61 65 72 0 +-.357
1875 .00635 .250825 0 0 1 30 65 8 0 58 73 70 0 +-.3571875 .00635 -.250825 -1 0 0
 30 72 14 0 28 70 74 0 +-.3571875 .00635 .250825 1 0 0 30 74 69 0 75 72 76 0 +.3
571875 0 .250825 0 0 -1 16 75 57 0 ?77 67 78 74 0 0 1 30 76 68 0 67 74 79 0 +-.3
571875 0 -.250825 -1 0 0 16 67 53 0 ?38 45 75 76 0 0 1 30 79 67 0 45 76 80 0 +-.
3571875 0 .250825 0 0 1 16 45 49 0 ?40 51 67 79 0 0 1 30 80 66 0 51 79 81 0 +-.3
571875 0 .250825 1 0 0 16 51 45 0 ?47 63 45 80 0 0 1 30 81 86 0 71 80 82 0 +.357
1875 .00635 .250825 0 -1 0 16 71 74 0 ?52 68 28 81 0 0 1 30 82 87 0 68 81 15 0 +
-.3571875 .00635 .250825 0 -1 0 16 68 75 0 ?46 20 71 82 0 0 1 30 15 88 0 20 82 6
 0 +-.3571875 .00635 -.250825 0 -1 0 17 46 0 49 47 27 39 42 68 0 50 +15 49 78 0
 47 83 0 17 27 0 49 46 29 22 21 28 0 0 -17 50 0 84 44 85 39 47 51 0 0 -15 84 44
 0 85 86 0 17 44 0 84 36 50 37 40 45 0 0 -17 85 0 84 50 36 16 77 75 0 0 -17 36 0
 84 85 44 34 38 67 0 19 -17 77 0 87 64 52 34 85 75 0 0 +15 87 84 0 77 12 0 17 64
 0 87 62 77 48 19 9 0 0 -17 52 0 87 77 62 16 29 71 0 85 +17 62 0 87 52 64 10 25
 63 0 0 -17 29 0 49 27 47 10 52 71 0 62 -16 63 4 0 ?25 58 51 73 0 0 1 30 73 5 0
 63 88 65 0 +.3571875 .00635 .250825 0 0 -1 31 255 88 177 0 89 90 73 0 +-.1143 .
00635 .2143125 0 1 0 0 0 1 .00215265 16 89 158 0 ?91 78 92 88 0 0 1 31 90 178 0
 78 93 88 0 +-.1143 0 .2143125 0 1 0 0 0 1 .00215265 16 78 155 0 ?94 75 89 90 0
 0 1 31 93 217 0 95 96 90 0 +-.2286 .00635 .2143125 0 1 0 0 0 1 .00215265 16 95
 198 0 ?97 92 98 93 0 0 1 31 96 218 0 92 99 93 0 +-.2286 0 .2143125 0 1 0 0 0 1
 .00215265 16 92 195 0 ?100 89 95 96 0 0 1 31 99 257 0 101 102 96 0 +.2286 .0063
5 .2143125 0 1 0 0 0 -1 .00215265 16 101 238 0 ?103 98 104 99 0 0 1 31 102 258 0
 98 105 99 0 +.2286 0 .2143125 0 1 0 0 0 -1 .00215265 16 98 235 0 ?106 95 101 10
2 0 0 1 31 105 297 0 107 108 102 0 +.1143 .00635 .2143125 0 1 0 0 0 -1 .00215265
 16 107 278 0 ?109 104 110 105 0 0 1 31 108 298 0 104 111 105 0 +.1143 0 .214312
5 0 1 0 0 0 -1 .00215265 16 104 275 0 ?112 101 107 108 0 0 1 31 111 337 0 113 11
4 108 0 +.1143 .00635 -.2143125 0 1 0 0 0 1 .00215265 16 113 318 0 ?115 110 116
 111 0 0 1 31 114 338 0 110 117 111 0 +.1143 0 -.2143125 0 1 0 0 0 1 .00215265 1
6 110 315 0 ?118 107 113 114 0 0 1 31 117 377 0 119 120 114 0 +.2286 .00635 -.21
43125 0 1 0 0 0 1 .00215265 16 119 358 0 ?121 116 122 117 0 0 1 31 120 378 0 116
 123 117 0 +.2286 0 -.2143125 0 1 0 0 0 1 .00215265 16 116 355 0 ?124 113 119 12
0 0 0 1 31 123 417 0 125 126 120 0 +-.2286 .00635 -.2143125 0 1 0 0 0 -1 .002152
65 16 125 398 0 ?127 122 128 123 0 0 1 31 126 418 0 122 129 123 0 +-.2286 0 -.21
43125 0 1 0 0 0 -1 .00215265 16 122 395 0 ?130 119 125 126 0 0 1 31 129 457 0 13
1 132 126 0 +-.1143 .00635 -.2143125 0 1 0 0 0 -1 .00215265 16 131 438 0 ?133 12
8 0 129 0 0 1 31 132 458 0 128 0 129 0 +-.1143 0 -.2143125 0 1 0 0 0 -1 .0021526
5 16 128 435 0 ?134 125 131 132 0 0 1 17 134 0 135 134 134 0 136 128 0 0 +15 135
 422 0 134 86 137 17 136 0 138 136 136 0 134 128 0 0 -15 138 444 0 136 139 140 1
4 255 139 441 141 ?0 142 138 4 143 -0 0 0 142 18 15 140 445 0 133 139 0 17 133 0
 140 133 133 0 144 131 0 0 +17 144 0 145 144 144 0 133 131 0 0 -15 145 428 0 144
 59 146 14 59 1 147 ?86 83 145 4 148 -0 0 86 83 18 15 146 388 0 149 59 150 17 14
9 0 146 149 149 0 127 125 0 0 -15 150 348 0 151 59 152 17 151 0 150 151 151 0 12
1 119 0 0 -15 152 308 0 153 59 154 17 153 0 152 153 153 0 115 113 0 0 -15 154 26
8 0 155 59 156 17 155 0 154 155 155 0 109 107 0 0 -15 156 228 0 157 59 158 17 15
7 0 156 157 157 0 103 101 0 0 -15 158 188 0 159 59 160 17 159 0 158 159 159 0 97
 95 0 0 -15 160 148 0 161 59 24 17 161 0 160 161 161 0 91 89 0 0 -17 91 0 162 91
 91 0 161 89 0 0 +15 162 165 0 91 163 0 14 163 161 164 ?165 86 166 4 167 -0 0 16
5 86 18 81 255 1 164 553 168 163 169 0 147 170 171 14 165 201 170 ?172 163 173 4
 174 -0 0 172 163 18 14 86 43 175 ?163 59 135 4 176 +0 0 163 59 18 15 166 164 0
 177 163 162 51 255 167 174 0 163 174 148 0 +-.1143 0 .2143125 0 1 0 .00215265 0
 0 1 13 18 29 0 0 0 0 0 0 8 12 14 12 85 178 ?66 0 87 4 5 -0 0 66 0 18 81 1 178 5
56 168 12 179 0 175 180 181 14 66 83 180 ?69 12 55 4 14 -0 0 69 12 18 81 1 180 5
57 168 66 182 0 178 183 184 14 69 81 183 ?83 66 41 4 185 -0 0 83 66 18 50 14 92
 0 66 185 5 0 +-.3571875 .00635 -.250825 0 0 1 1 0 0 50 185 91 0 69 186 14 0 +-.
3571875 .00635 .250825 1 0 0 0 0 -1 50 186 90 0 83 176 185 0 +-.3571875 .00635 .
250825 0 0 -1 -1 0 0 14 83 79 187 ?59 69 49 4 186 -0 0 59 69 18 50 176 65 0 86 1
48 186 0 +0 0 0 0 -1 0 0 0 -1 50 148 2 0 59 167 176 0 +0 .00635 0 0 -1 0 0 0 -1
 81 1 187 559 168 83 188 0 183 189 190 80 255 1 168 191 192 9000 1 1 1 1 1 1 1 1
 0 FFFFTFTFFFFFFF1 81 1 188 510 193 83 0 187 194 195 196 81 1 183 558 168 69 194
 0 180 187 197 81 1 189 560 168 172 198 0 187 199 200 82 255 1 190 258277485 14
 172 241 189 ?201 165 202 4 203 -0 0 201 165 18 81 1 198 515 193 172 0 189 204 2
05 206 81 1 199 561 168 201 205 0 189 207 208 82 1 200 -325713800 14 201 281 199
 ?209 172 210 4 211 -0 0 209 172 18 81 1 205 516 193 201 0 199 198 212 213 81 1
 207 562 168 209 212 0 199 214 215 82 1 208 -321781640 14 209 321 207 ?216 201 2
17 4 218 -0 0 216 201 18 81 1 212 517 193 209 0 207 205 219 220 81 1 214 563 168
 216 219 0 207 221 222 82 1 215 -317849480 14 216 361 214 ?142 209 223 4 224 -0
 0 142 209 18 81 1 219 518 193 216 0 214 212 225 226 81 1 221 564 168 142 225 0
 214 0 227 82 1 222 -313917320 14 142 401 221 ?139 216 228 4 229 -0 0 139 216 18
 81 1 225 519 193 142 0 221 219 230 231 82 1 227 -309985160 80 1 193 0 232 8001
 0 0 0 0 3 5 0 0 0 FFFFTFTFFFFFFF2 81 1 230 520 193 139 0 141 225 0 233 83 255 3
 231 .894117647058824 .913725490196078 .929411764705882 81 1 141 551 168 139 230
 0 0 147 234 83 3 233 .894117647058824 .913725490196078 .929411764705882 81 1 14
7 552 168 59 195 0 141 164 235 82 1 234 -306053000 81 1 195 511 193 59 0 147 188
 236 237 82 1 235 -1793523592 81 1 236 512 193 86 0 175 195 169 238 83 3 237 .89
4117647058824 .913725490196078 .929411764705882 81 1 175 555 168 86 236 0 170 17
8 239 81 1 169 513 193 163 0 164 236 204 240 83 3 238 .894117647058824 .91372549
0196078 .929411764705882 81 1 204 514 193 165 0 170 169 198 241 83 3 240 .894117
647058824 .913725490196078 .929411764705882 81 1 170 554 168 165 204 0 164 175 2
42 83 3 241 .894117647058824 .913725490196078 .929411764705882 82 1 242 -3296459
60 82 1 239 -1792212872 79 255 15 232 SDL/TYSA_COLOUR15 228 404 0 243 142 244 51
 229 414 0 142 143 224 0 +-.2286 0 -.2143125 0 1 0 .00215265 0 0 1 51 143 454 0
 139 0 229 0 +-.1143 0 -.2143125 0 1 0 .00215265 0 0 1 51 224 374 0 216 229 218
 0 +.2286 0 -.2143125 0 1 0 .00215265 0 0 1 51 218 334 0 209 224 211 0 +.1143 0
 -.2143125 0 1 0 .00215265 0 0 1 51 211 294 0 201 218 203 0 +.1143 0 .2143125 0
 1 0 .00215265 0 0 1 51 203 254 0 172 211 174 0 +.2286 0 .2143125 0 1 0 .0021526
5 0 0 1 51 174 214 0 165 203 167 0 +-.2286 0 .2143125 0 1 0 .00215265 0 0 1 17 2
43 0 228 243 243 0 130 122 0 0 -15 244 405 0 127 142 0 17 127 0 244 127 127 0 14
9 125 0 0 +17 130 0 137 130 130 0 243 122 0 0 +15 137 382 0 130 86 245 15 245 34
2 0 124 86 246 17 124 0 245 124 124 0 247 116 0 0 +15 246 302 0 118 86 248 17 11
8 0 246 118 118 0 249 110 0 0 +15 248 262 0 112 86 250 17 112 0 248 112 112 0 25
1 104 0 0 +15 250 222 0 106 86 252 17 106 0 250 106 106 0 253 98 0 0 +15 252 182
 0 100 86 254 17 100 0 252 100 100 0 255 92 0 0 +15 254 142 0 94 86 84 17 94 0 2
54 94 94 0 177 78 0 0 +17 177 0 166 177 177 0 94 78 0 0 -17 255 0 173 255 255 0
 100 92 0 0 -15 173 204 0 255 165 256 15 256 205 0 97 165 0 17 97 0 256 97 97 0
 159 95 0 0 +17 253 0 202 253 253 0 106 98 0 0 -15 202 244 0 253 172 257 15 257
 245 0 103 172 0 17 103 0 257 103 103 0 157 101 0 0 +17 251 0 210 251 251 0 112
 104 0 0 -15 210 284 0 251 201 258 15 258 285 0 109 201 0 17 109 0 258 109 109 0
 155 107 0 0 +17 249 0 217 249 249 0 118 110 0 0 -15 217 324 0 249 209 259 15 25
9 325 0 115 209 0 17 115 0 259 115 115 0 153 113 0 0 +17 247 0 223 247 247 0 124
 116 0 0 -15 223 364 0 247 216 260 15 260 365 0 121 216 0 17 121 0 260 121 121 0
 151 119 0 0 +83 3 226 .894117647058824 .913725490196078 .929411764705882 83 3 2
20 .894117647058824 .913725490196078 .929411764705882 83 3 213 .894117647058824
 .913725490196078 .929411764705882 83 3 206 .894117647058824 .913725490196078 .9
29411764705882 81 1 194 509 193 69 0 183 182 188 261 82 1 197 258539629 81 1 182
 508 193 66 0 180 179 194 262 83 3 261 .894117647058824 .913725490196078 .929411
764705882 81 1 179 507 193 12 0 178 0 182 263 83 3 262 .894117647058824 .9137254
90196078 .929411764705882 83 3 263 .894117647058824 .913725490196078 .9294117647
05882 83 3 196 .894117647058824 .913725490196078 .929411764705882 79 14 192 SWEn
tUnchanged82 1 184 258801773 82 1 181 259063917 82 1 171 -333643656 17 19 0 55 3
8 53 34 64 9 0 77 +19 13 95 0 1 0 8 4 S74 4 CI16 index_map_offset0 0 1 dCCZ20 11
 2 0 0 221 230 0 0 0 0 0 0 0 0 0 0 0 0 0 0 0 0 0 0 1 0 
