**ABCDEFGHIJKLMNOPQRSTUVWXYZabcdefghijklmnopqrstuvwxyz**************************
**PARASOLID !"#$%&'()*+,-./:;<=>?@[\]^_`{|}~0123456789**************************
**PART1;
MC=AMD64;
MC_MODEL=Intel64 Family 6 Model 58 Stepping 9, GenuineIntel;
MC_ID=unknown;
OS=Windows_NT;
OS_RELEASE=unknown;
FRU=Parasolid Version 24.1, build 257,  2-12-2013;
APPL=SolidWorks 2013-2013086;
SITE=;
USER=unknown;
FORMAT=text;
GUISE=transmit;
KEY=Final Base-FB V4;
FILE=Final Base-FB V4.x_t;
DATE=Sun Mar 09 11:51:48 2014;
**PART2;
SCH=SCH_2401257_20000;
USFLD_SIZE=0;
**PART3;
**END_OF_HEADER*****************************************************************
T51 : TRANSMIT FILE created by modeller version 240125723 SCH_2401257_20000_1300
6189 0 12 27 CCCCCCCCCCCCCCCCCCCCCCCA16 index_map_offset0 0 1 dA9 index_map82 0
 A17 node_id_index_map82 0 A20 schema_embedding_map82 0 Z1 468 0 2 0 0 0 0 1e3 1
e-8 0 3 0 1 0 1 1 4 5 6 7 8 9 10 0 0 0 0 70 11 CI9 list_type0 0 1 uI10 notransmi
t0 0 1 lCCCDCCDI12 finger_index0 0 1 dI12 finger_block1012 0 CZ2 0 4 T1 0 0 2 20
 1 11 11 13 255 4 94 0 1 0 12 0 0 13 0 50 255 5 93 0 12 14 0 0 +.0047625 -.13731
875 -.2460625 0 0 1 1 0 0 30 255 6 89 0 9 15 0 0 +.0047625 .13731875 -.2460625 -
1 0 0 29 255 7 177 0 10 16 0 .0047625 -.06 -.02485281374238565 19 255 8 28 0 1 1
3 0 17 V16 255 9 77 0 ?18 0 19 6 0 0 1 18 255 10 175 0 20 0 21 7 ?1 17 255 20 0
 22 23 24 10 25 26 0 27 +18 21 136 0 28 10 29 16 ?1 17 28 0 30 31 32 21 33 34 0
 35 -18 29 25 0 36 21 37 38 ?1 29 16 138 0 21 39 7 0 -.02485281374238575 -.06 29
 39 70 0 40 41 16 0 -.13731875 -.2460625 18 40 61 0 42 43 44 39 ?1 29 41 71 0 44
 45 39 0 -.13731875 .2460625 18 44 62 0 46 40 47 41 ?1 29 45 72 0 47 48 41 0 .13
731875 .2460625 18 47 63 0 49 44 50 45 ?1 29 48 73 0 50 38 45 0 .13731875 -.2460
625 18 50 64 0 51 47 52 48 ?1 29 38 27 0 29 53 48 .0047625 -.13731875 -.2460625
 29 53 24 0 37 54 38 .0047625 -.13731875 .2460625 18 37 22 0 55 29 56 53 ?1 29 5
4 21 0 56 57 53 .0047625 .13731875 .2460625 18 56 19 0 58 37 43 54 ?1 29 57 18 0
 43 59 54 .0047625 .13731875 -.2460625 18 43 16 0 60 56 40 57 ?1 29 59 344 0 52
 61 57 .0047625 -.06 .02485281374238565 18 52 252 0 24 50 62 59 ?1 29 61 345 0 6
2 63 59 .0047625 -.02485281374238575 .06 18 62 253 0 64 52 65 61 ?1 29 63 346 0
 65 66 61 .0047625 .02485281374238565 .06 18 65 254 0 67 62 68 63 ?1 29 66 347 0
 68 69 63 .0047625 .06 .02485281374238575 18 68 255 0 70 65 71 66 ?1 29 69 348 0
 71 72 66 .0047625 .06 -.02485281374238575 18 71 256 0 73 68 74 69 ?1 29 72 349
 0 74 75 69 .0047625 .0248528137423856 -.06 18 74 257 0 76 71 77 72 ?1 29 75 350
 0 77 78 72 .0047625 -.02485281374238575 -.06 18 77 258 0 33 74 79 75 ?1 29 78 3
51 0 79 80 75 0 -.06 .02485281374238565 18 79 259 0 81 77 82 78 ?1 29 80 352 0 8
2 83 78 0 -.02485281374238575 .06 18 82 260 0 84 79 85 80 ?1 29 83 353 0 85 86 8
0 0 .02485281374238565 .06 18 85 261 0 87 82 88 83 ?1 29 86 354 0 88 89 83 0 .06
 .02485281374238575 18 88 262 0 90 85 91 86 ?1 29 89 355 0 91 92 86 0 .06 -.0248
5281374238575 18 91 263 0 93 88 94 89 ?1 29 92 356 0 94 95 89 0 .024852813742385
6 -.06 18 94 264 0 96 91 97 92 ?1 29 95 357 0 97 0 92 0 -.06 -.02485281374238565
 18 97 266 0 31 94 0 95 ?1 17 31 0 30 27 28 97 98 99 0 23 -15 255 30 299 0 27 10
0 0 17 27 0 30 32 31 10 23 101 0 102 +17 98 0 103 104 105 21 31 99 0 0 +16 99 22
3 0 ?98 106 101 107 0 0 1 17 23 0 22 81 20 97 27 101 0 105 -15 22 270 0 24 108 0
 17 81 0 22 24 23 79 105 109 0 110 -16 101 210 0 ?27 99 111 112 0 0 1 17 105 0 1
03 98 113 97 81 109 0 0 +15 103 168 0 105 114 115 17 113 0 103 105 116 79 84 117
 0 0 +16 109 209 0 ?105 118 117 119 0 0 1 16 118 228 0 ?32 120 109 121 0 0 1 16
 117 211 0 ?113 109 122 123 0 0 1 30 119 335 0 109 123 121 0 +0 -.06 .0248528137
4238565 0 -558399059022695e-30 -1 30 123 336 0 117 124 119 0 +0 -.02485281374238
575 .06 0 -.707106781186546 -.707106781186549 30 121 334 0 118 119 125 0 +.00476
25 -.04242640687119285 -.04242640687119285 0 .707106781186546 -.707106781186549
 30 125 333 0 120 121 126 0 +.0047625 -.02485281374238575 -.06 0 1 1395997647556
736e-31 16 120 233 0 ?127 128 118 125 0 0 1 30 126 332 0 128 125 129 0 +.0047625
 .06 -.02485281374238575 0 .707106781186549 .707106781186546 16 128 236 0 ?130 1
31 120 126 0 0 1 30 129 331 0 131 126 132 0 +.0047625 .06 .02485281374238575 0 5
58399059022693e-30 1 16 131 239 0 ?133 134 128 129 0 0 1 30 132 330 0 134 129 13
5 0 +.0047625 .06 .02485281374238575 0 -.707106781186549 .707106781186546 16 134
 242 0 ?136 137 131 132 0 0 1 30 135 329 0 137 132 138 0 +.0047625 -.02485281374
238575 .06 0 -1 1395997647556734e-31 16 137 245 0 ?139 140 134 135 0 0 1 30 138
 328 0 140 135 141 0 +.0047625 -.02485281374238575 .06 0 -.707106781186546 -.707
106781186549 16 140 248 0 ?142 26 137 138 0 0 1 30 141 327 0 26 138 112 0 +.0047
625 -.06 .02485281374238565 0 -558399059022695e-30 -1 16 26 225 0 ?20 34 140 141
 0 0 1 30 112 326 0 101 141 143 0 +-1000000000000132e-21 -.06 -.0248528137423856
5 1 0 0 30 143 325 0 111 112 144 0 +-1000000000000132e-21 -.06 .0248528137423856
5 1 0 0 16 111 212 0 ?24 101 145 143 0 0 1 30 144 324 0 145 143 146 0 +-10000000
00000132e-21 -.02485281374238575 .06 1 0 0 16 145 214 0 ?64 111 147 144 0 0 1 30
 146 323 0 147 144 148 0 +-1000000000000132e-21 .02485281374238565 .06 1 0 0 16
 147 216 0 ?67 145 149 146 0 0 1 30 148 322 0 149 146 150 0 +-1000000000000132e-
21 .06 .02485281374238575 1 0 0 16 149 218 0 ?70 147 151 148 0 0 1 30 150 321 0
 151 148 152 0 +-1000000000000132e-21 .06 -.02485281374238575 1 0 0 16 151 220 0
 ?73 149 153 150 0 0 1 30 152 320 0 153 150 154 0 +-1000000000000132e-21 .024852
8137423856 -.06 1 0 0 16 153 222 0 ?76 151 34 152 0 0 1 30 154 319 0 34 152 107
 0 +-1000000000000132e-21 -.02485281374238575 -.06 1 0 0 16 34 224 0 ?33 153 26
 154 0 0 1 30 107 318 0 99 154 155 0 +0 -.04242640687119285 -.04242640687119285
 0 .707106781186546 -.707106781186549 30 155 5 0 156 107 157 0 +.0047625 -.13731
875 -.2460625 0 1 0 16 156 4 0 ?158 159 160 155 0 0 1 30 157 8 0 159 155 161 0 +
.0047625 .13731875 .2460625 0 0 1 16 159 7 0 ?58 162 156 157 0 0 1 30 161 11 0 1
62 157 163 0 +.0047625 -.13731875 .2460625 0 -1 0 16 162 10 0 ?55 164 159 161 0
 0 1 30 163 14 0 164 161 165 0 +.0047625 -.13731875 .2460625 0 0 -1 16 164 13 0
 ?36 166 162 163 0 0 1 30 165 69 0 106 163 167 0 +0 -.13731875 -.2460625 0 1 0 1
6 106 57 0 ?168 169 99 165 0 0 1 30 167 68 0 169 165 170 0 +0 .13731875 .2460625
 0 0 1 16 169 53 0 ?49 171 106 167 0 0 1 30 170 67 0 171 167 172 0 +0 -.13731875
 .2460625 0 -1 0 16 171 49 0 ?46 160 169 170 0 0 1 30 172 66 0 160 170 173 0 +0
 -.13731875 .2460625 0 0 -1 16 160 45 0 ?42 156 171 172 0 0 1 30 173 86 0 166 17
2 174 0 +.0047625 -.13731875 -.2460625 -1 0 0 16 166 74 0 ?175 176 164 173 0 0 1
 30 174 87 0 176 173 15 0 +.0047625 -.13731875 .2460625 -1 0 0 16 176 75 0 ?177
 19 166 174 0 0 1 30 15 88 0 19 174 6 0 +.0047625 .13731875 .2460625 -1 0 0 16 1
9 76 0 ?178 9 176 15 0 0 1 17 178 0 179 46 180 47 181 19 0 182 +15 179 80 0 46 1
83 0 17 46 0 179 184 178 44 182 171 0 177 +17 180 0 179 178 184 56 55 162 0 0 -1
7 181 0 185 60 49 56 178 19 0 180 -17 182 0 115 51 186 47 46 171 0 0 -15 115 44
 0 187 114 0 17 51 0 115 187 182 50 49 169 0 18 -17 186 0 115 182 187 44 42 160
 0 0 -17 187 0 115 186 51 40 168 106 0 0 -17 42 0 188 189 177 40 186 160 0 175 +
15 188 78 0 42 190 0 17 189 0 188 191 42 29 175 166 0 192 -17 177 0 188 42 191 4
4 184 176 0 186 +17 175 0 193 168 192 40 189 166 0 187 +15 193 84 0 168 12 0 17
 168 0 193 194 175 50 187 106 0 0 +17 192 0 193 175 194 29 158 156 0 0 -17 194 0
 193 192 168 43 18 9 0 0 -17 158 0 195 58 36 43 192 156 0 194 +15 195 3 0 158 19
6 0 17 58 0 195 55 158 56 60 159 0 181 +17 36 0 195 158 55 29 191 164 0 189 +17
 55 0 195 36 58 37 180 162 0 184 +17 191 0 188 177 189 37 36 164 0 0 -17 184 0 1
79 180 46 37 177 176 0 191 -17 60 0 185 18 181 43 58 159 0 158 -15 185 82 0 49 1
97 0 17 18 0 185 49 60 50 194 9 0 168 +17 49 0 185 181 18 47 51 169 0 178 +14 25
5 197 83 198 ?183 12 185 4 14 -0 0 183 12 17 81 255 1 198 455 199 197 200 0 0 20
1 202 14 183 81 201 ?190 197 179 4 203 -0 0 190 197 17 14 12 85 204 ?197 0 193 4
 5 -0 0 197 0 17 50 14 92 0 197 203 5 0 +.0047625 .13731875 .2460625 0 -1 0 0 0
 -1 13 17 29 0 0 0 0 0 0 8 12 50 203 91 0 183 205 14 0 +.0047625 -.13731875 .246
0625 0 0 -1 -1 0 0 50 205 90 0 190 206 203 0 +.0047625 -.13731875 .2460625 0 1 0
 0 0 1 14 190 79 207 ?196 183 188 4 205 -0 0 196 183 17 50 206 65 0 114 208 205
 0 +0 0 0 -1 0 0 0 0 1 14 114 43 209 ?108 196 103 4 206 +0 0 108 196 17 50 208 2
 0 196 210 206 0 +.0047625 0 0 -1 0 0 0 0 1 14 196 1 211 ?114 190 212 4 208 -0 0
 114 190 17 50 210 308 0 100 213 208 0 +-1000000000000132e-21 -.0424264068711928
5 -.04242640687119285 0 -.707106781186549 -.707106781186546 0 .707106781186546 -
.707106781186549 14 100 295 214 ?0 215 30 4 210 -0 0 0 215 17 50 213 309 0 215 2
16 210 0 +-1000000000000132e-21 -.02485281374238575 -.06 0 1395997647556736e-31
 -1 0 1 1395997647556736e-31 14 215 291 217 ?100 218 219 4 213 -0 0 100 218 17 5
0 216 310 0 218 220 213 0 +-1000000000000132e-21 .06 -.02485281374238575 0 .7071
06781186546 -.707106781186549 0 .707106781186549 .707106781186546 14 218 287 221
 ?215 222 223 4 216 -0 0 215 222 17 50 220 311 0 222 224 216 0 +-100000000000013
2e-21 .06 .02485281374238575 0 1 -558399059022693e-30 0 558399059022693e-30 1 14
 222 283 225 ?218 226 227 4 220 -0 0 218 226 17 50 224 312 0 226 228 220 0 +-100
0000000000132e-21 .06 .02485281374238575 0 .707106781186546 .707106781186549 0 -
.707106781186549 .707106781186546 14 226 279 229 ?222 230 231 4 224 -0 0 222 230
 17 50 228 313 0 230 232 224 0 +-1000000000000132e-21 -.02485281374238575 .06 0
 1395997647556734e-31 1 0 -1 1395997647556734e-31 14 230 275 233 ?226 234 235 4
 228 -0 0 226 234 17 50 232 314 0 234 236 228 0 +-1000000000000132e-21 -.0248528
1374238575 .06 0 -.707106781186549 .707106781186546 0 -.707106781186546 -.707106
781186549 14 234 271 237 ?230 108 238 4 232 -0 0 230 108 17 50 236 315 0 108 0 2
32 0 +-1000000000000132e-21 -.06 .02485281374238565 0 -1 558399059022695e-30 0 -
558399059022695e-30 -1 14 108 267 239 ?234 114 22 4 236 -0 0 234 114 17 81 1 239
 468 199 108 240 0 237 0 241 80 255 1 199 242 243 9000 1 1 1 1 1 1 1 1 0 FFFFTFT
FFFFFFF1 81 1 240 416 244 108 0 239 245 246 247 81 1 237 467 199 234 246 0 233 2
39 248 82 255 1 241 1700659317 81 1 246 417 244 234 0 237 240 249 250 81 1 233 4
66 199 230 249 0 229 237 251 82 1 248 1700790389 81 1 249 418 244 230 0 233 246
 252 253 81 1 229 465 199 226 252 0 225 233 254 82 1 251 1700921461 81 1 252 419
 244 226 0 229 249 255 256 81 1 225 464 199 222 255 0 221 229 257 82 1 254 17010
52533 81 1 255 420 244 222 0 225 252 258 259 81 1 221 463 199 218 258 0 217 225
 260 82 1 257 1701183605 81 1 258 421 244 218 0 221 255 261 262 81 1 217 462 199
 215 261 0 214 221 263 82 1 260 1701314677 81 1 261 422 244 215 0 217 258 264 26
5 81 1 214 461 199 100 264 0 211 217 266 82 1 263 1701445749 81 1 264 423 244 10
0 0 214 261 0 267 81 1 211 460 199 196 268 0 209 214 269 82 1 266 1701576821 81
 1 268 414 244 196 0 211 270 245 271 81 1 209 459 199 114 245 0 207 211 272 82 1
 269 595787893 81 1 245 415 244 114 0 209 268 240 273 81 1 207 458 199 190 270 0
 204 209 274 82 1 272 599261301 81 1 270 413 244 190 0 207 275 268 276 81 1 204
 457 199 12 277 0 201 207 278 82 1 274 602341489 81 1 277 410 244 12 0 204 0 200
 279 81 1 201 456 199 183 275 0 198 204 280 82 1 278 603127921 81 1 275 412 244
 183 0 201 200 270 281 82 1 280 602603633 80 1 244 0 282 8001 0 0 0 0 3 5 0 0 0
 FFFFTFTFFFFFFF2 81 1 200 411 244 197 0 198 277 275 283 83 255 3 281 .7921568627
45098 .819607843137255 .933333333333333 83 3 283 .792156862745098 .8196078431372
55 .933333333333333 79 255 15 282 SDL/TYSA_COLOUR83 3 279 .792156862745098 .8196
07843137255 .933333333333333 83 3 276 .792156862745098 .819607843137255 .9333333
33333333 83 3 273 .792156862745098 .819607843137255 .933333333333333 83 3 271 .7
92156862745098 .819607843137255 .933333333333333 83 3 267 .792156862745098 .8196
07843137255 .933333333333333 83 3 265 .792156862745098 .819607843137255 .9333333
33333333 83 3 262 .792156862745098 .819607843137255 .933333333333333 83 3 259 .7
92156862745098 .819607843137255 .933333333333333 83 3 256 .792156862745098 .8196
07843137255 .933333333333333 83 3 253 .792156862745098 .819607843137255 .9333333
33333333 83 3 250 .792156862745098 .819607843137255 .933333333333333 83 3 247 .7
92156862745098 .819607843137255 .933333333333333 79 14 243 SWEntUnchanged15 238
 274 0 64 234 0 17 64 0 238 142 84 62 284 145 0 139 +17 142 0 238 110 64 52 285
 140 0 25 +17 84 0 238 64 110 82 113 117 0 284 -17 284 0 235 87 139 82 64 145 0
 116 -17 139 0 235 284 67 62 286 137 0 285 +15 235 278 0 67 230 0 17 67 0 235 13
9 87 65 287 147 0 136 +17 286 0 212 288 285 65 139 137 0 0 -17 285 0 212 286 25
 62 142 140 0 0 -15 212 173 0 102 196 195 17 25 0 212 285 102 52 20 26 0 0 -17 1
02 0 212 25 289 10 32 118 0 0 -17 289 0 212 102 290 77 127 120 0 0 -17 32 0 30 2
8 27 77 102 118 0 289 +17 290 0 212 289 291 74 130 128 0 0 -17 127 0 219 292 33
 74 289 120 0 290 +15 219 294 0 33 215 0 17 292 0 219 35 127 94 76 153 0 104 -17
 33 0 219 127 35 77 28 34 0 32 +17 35 0 219 33 292 21 104 293 0 98 -17 104 0 103
 294 98 94 35 293 0 0 +16 293 221 0 ?104 295 0 296 0 0 1 16 295 219 0 ?294 297 2
93 298 0 0 1 30 296 341 0 293 0 298 0 +0 -.02485281374238575 -.06 0 1 1395997647
556736e-31 30 298 340 0 295 296 299 0 +0 .06 -.02485281374238575 0 .707106781186
549 .707106781186546 30 299 339 0 297 298 300 0 +0 .06 .02485281374238575 0 5583
99059022693e-30 1 16 297 217 0 ?301 302 295 299 0 0 1 30 300 338 0 302 299 124 0
 +0 .06 .02485281374238575 0 -.707106781186549 .707106781186546 16 302 215 0 ?30
3 122 297 300 0 0 1 30 124 337 0 122 300 123 0 +0 -.02485281374238575 .06 0 -1 1
395997647556734e-31 16 122 213 0 ?116 117 302 124 0 0 1 17 116 0 103 113 303 82
 87 122 0 0 +17 303 0 103 116 301 85 90 302 0 0 +17 87 0 235 67 284 85 116 122 0
 287 -17 287 0 231 90 136 85 67 147 0 303 -15 231 282 0 70 226 0 17 90 0 231 70
 287 88 303 302 0 304 -17 136 0 231 287 70 65 288 134 0 286 +17 70 0 231 136 90
 68 304 149 0 133 +17 288 0 212 291 286 68 136 134 0 0 -17 291 0 212 290 288 71
 133 131 0 0 -17 133 0 227 304 73 68 291 131 0 288 +15 227 286 0 73 222 0 17 304
 0 227 93 133 88 70 149 0 301 -17 73 0 227 133 93 71 305 151 0 130 +17 93 0 227
 73 304 91 301 297 0 305 -17 305 0 223 96 130 91 73 151 0 294 -17 130 0 223 305
 76 71 290 128 0 291 +15 223 290 0 76 218 0 17 76 0 223 130 96 74 292 153 0 127
 +17 96 0 223 76 305 94 294 295 0 292 -17 294 0 103 301 104 91 96 295 0 0 +17 30
1 0 103 303 294 88 93 297 0 0 +17 110 0 238 84 142 79 24 111 0 113 -17 24 0 22 2
0 81 52 110 111 0 142 +82 1 202 602865777 19 13 95 0 1 0 8 4 S74 4 CI16 index_ma
p_offset0 0 1 dCCZ20 11 2 0 0 239 264 0 0 0 0 0 0 0 0 0 0 0 0 0 0 0 0 0 0 1 0 
